<svg width="44" height="31" viewBox="0 0 44 31" xmlns="http://www.w3.org/2000/svg"><g fill="none" fill-rule="evenodd"><g><g><g><g><path d="M42.8566667,2.10211538 L42.8566667,20.1262019 C42.8566667,21.2859615 41.8975,22.2275 40.7141667,22.2275 L39.5241667,22.2275 L39.5241667,3.26923077 L7.9425,3.26923077 L7.9425,2.10211538 C7.9425,0.941538462 8.90166667,1.45183011e-15 10.0858333,1.45183011e-15 L40.7141667,1.45183011e-15 C41.8975,1.45183011e-15 42.8566667,0.941538462 42.8566667,2.10211538" fill="#7ABAF8" transform="translate(-572.000000, -520.000000) translate(503.000000, 510.000000) translate(65.000000, 0.000000) translate(4.333333, 10.625000)"/><path d="M35.9525 11.9359615L35.9525 8.87432692C35.9525 7.71375 34.9933333 6.77221154 33.81 6.77221154L2.1425 6.77221154C.959166667 6.77221154 4.4408921e-14 7.71375 4.4408921e-14 8.87432692L4.4408921e-14 11.9359615 35.9525 11.9359615M4.4408921e-14 18.5602404L4.4408921e-14 27.5089423C4.4408921e-14 28.6695192.959166667 29.6102404 2.1425 29.6102404L33.81 29.6102404C34.9933333 29.6102404 35.9525 28.6695192 35.9525 27.5089423L35.9525 18.5602404 4.4408921e-14 18.5602404" fill="#657380" transform="translate(-572.000000, -520.000000) translate(503.000000, 510.000000) translate(65.000000, 0.000000) translate(4.333333, 10.625000)"/></g></g></g></g></g></svg>