<svg width="38" height="27" viewBox="0 0 38 27" xmlns="http://www.w3.org/2000/svg"><g fill="none" fill-rule="evenodd"><g><g><g><g><path d="M36.6226467,6.561745 L36.6226467,24.300565 C36.6226467,25.3489125 35.80863,26.1971275 34.7286767,26.1971275 L1.89397,26.1971275 C0.847903333,26.1971275 0,25.3662525 0,24.33958 L0,6.561745 L18.3113233,19.4085175 L36.6226467,6.561745" fill="#657380" transform="translate(-827.000000, -672.000000) translate(755.000000, 661.000000) translate(65.000000, 0.000000) translate(7.583333, 11.687500)"/><path d="M36.49152,1.290385 C36.23958,0.521645 35.5110167,0 34.6874233,0 L1.93522333,0 C1.11236667,0 0.38233,0.521645 0.131863333,1.290385 C-0.120076667,2.059125 0.164276667,2.8993925 0.83317,3.3690175 L17.20927,14.8546 C17.8649033,15.3148325 18.7577433,15.3148325 19.4133767,14.8546 L35.7894767,3.3690175 C36.4591067,2.8993925 36.7427233,2.059125 36.49152,1.290385" fill="#7ABAF8" transform="translate(-827.000000, -672.000000) translate(755.000000, 661.000000) translate(65.000000, 0.000000) translate(7.583333, 11.687500)"/></g></g></g></g></g></svg>