<svg width="64" height="60" viewBox="0 0 64 58" xmlns="http://www.w3.org/2000/svg"><g fill="none" fill-rule="evenodd"><g><g transform="translate(-356.000000, -917.000000) translate(356.000000, 917.000000)"><path d="M8.64119621,34.5877447 L8.64119621,3.1727234 C8.64119621,1.42161702 10.0578116,-7.01471977e-14 11.8067347,-7.01471977e-14 L51.7870424,-7.01471977e-14 C53.5347347,-7.01471977e-14 54.9513501,1.42161702 54.9513501,3.1727234 L54.9513501,34.5877447 C54.9513501,36.3413191 53.5347347,37.7617021 51.7870424,37.7617021 L11.8067347,37.7617021 C10.0578116,37.7617021 8.64119621,36.3413191 8.64119621,34.5877447 Z M46.5513501,32.1208936 C48.0085808,32.1208936 49.1888885,30.9362128 49.1888885,29.4751064 L49.1888885,8.28659574 C49.1888885,6.8267234 48.0073501,5.64204255 46.5513501,5.64204255 L17.0411962,5.64204255 C15.5851962,5.64204255 14.4036578,6.8267234 14.4036578,8.28659574 L14.4036578,29.4751064 C14.4036578,30.9362128 15.5851962,32.1208936 17.0411962,32.1208936 L46.5513501,32.1208936 L46.5513501,32.1208936 Z" fill="#657380"/><polygon fill="#7ABAF8" points="19.6775039 26.8305532 43.9125808 26.8305532 43.9125808 10.9311489 19.6775039 10.9311489"/><path d="M63.2639654,56.1797872 C62.7298116,57.2620426 61.6307347,57.9457021 60.4270424,57.9457021 L3.16550391,57.9457021 C1.96919621,57.9457021 0.875042367,57.2694468 0.338426983,56.1982979 C-0.20064994,55.1271489 -0.0886499405,53.8437447 0.623965444,52.8811915 L8.94027314,41.6575745 C9.53719621,40.8529787 10.4787347,40.3778723 11.4805808,40.3778723 L51.8830424,40.3778723 C52.8688885,40.3778723 53.7993501,40.8381702 54.3975039,41.6254894 L62.9427347,52.8478723 C63.6738116,53.8067234 63.7981193,55.098766 63.2639654,56.1797872 Z M26.6411962,53.4402128 L36.9513501,53.4402128 L36.4516578,49.2802553 L27.1408885,49.2802553 L26.6411962,53.4402128 L26.6411962,53.4402128 Z" fill="#657380"/></g></g></g></svg>