<svg width="30" height="29" viewBox="0 0 30 29" xmlns="http://www.w3.org/2000/svg"><g fill="none" fill-rule="evenodd"><g fill="#FFF"><g><g><g><path d="M19.627801,19.7718716 C15.25526,19.7718716 11.7106152,16.2272268 11.7106152,11.8546858 C11.7106152,7.48214481 15.25526,3.9375 19.627801,3.9375 C24.000342,3.9375 27.5449868,7.48214481 27.5449868,11.8546858 C27.5412825,16.2256915 23.9988067,19.7681673 19.627801,19.7718716 Z M19.6278012,5.08292234 C16.8872143,5.08292234 14.4165465,6.73399196 13.3680833,9.26609414 C12.3196202,11.7981963 12.8998868,14.7125607 14.8382549,16.6499677 C16.7766229,18.5873747 19.6912748,19.166196 22.2228567,18.1164773 C24.7544387,17.0667586 26.4042826,14.5952724 26.4029247,11.8546858 C26.3973701,8.11573585 23.3667536,5.08662198 19.6278012,5.08292234 Z M32.1165994,21.8544578 C32.5080242,22.3231086 32.68567,22.9340743 32.6065576,23.5395396 C32.5274452,24.145005 32.1987813,24.6898143 31.7000821,25.0421581 L23.8567944,30.5912424 C22.5748794,31.5075102 20.9461058,31.7917423 19.4296195,31.3638146 L12.8392424,29.5062822 C11.9828145,29.2640177 11.0620396,29.4559503 10.3737292,30.0202107 L8.57665901,31.4645849 C8.47572809,31.5483134 8.34837767,31.5935407 8.21724497,31.5922551 C7.97835,31.5900683 7.76605051,31.4394209 7.68512883,31.2146385 C7.60420715,30.989856 7.67177031,30.7384581 7.85447192,30.5845243 L9.63474709,29.1233551 C10.6125431,28.323678 11.9191006,28.0515829 13.1348352,28.3944499 L19.7420074,30.2553414 C20.9288186,30.5958488 22.2061143,30.3769898 23.2118645,29.6607966 L31.0383572,24.1117124 C31.4909269,23.7776132 31.5990108,23.1458086 31.2832369,22.6802676 C30.9674629,22.2147266 30.3404745,22.0815176 29.8627038,22.3784633 L24.085207,26.1506313 L24.0213859,26.1842214 C23.9624055,27.3588117 22.9939437,28.2815078 21.8178755,28.2836026 C21.5432651,28.2829178 21.2711277,28.2316786 21.0150721,28.1324472 L15.4861421,25.9524498 C15.2850154,25.8863582 15.1369605,25.7144167 15.1014618,25.5057067 C15.0659631,25.2969968 15.1488473,25.0857757 15.3168138,24.9569064 C15.4847803,24.8280372 15.7102593,24.8026723 15.9026593,24.8910027 L21.4483844,27.054205 C21.9833881,27.2453052 22.5738205,26.9798066 22.7858998,26.4527671 C22.997979,25.9257276 22.7560047,25.3252707 22.2377517,25.0925432 L14.0417679,21.7335334 C12.9589203,21.2875642 11.719406,21.4637193 10.8036825,22.1937178 L4.89182532,26.8963315 C4.73442249,27.038858 4.51093333,27.082274 4.31161697,27.0090453 C4.1123006,26.9358166 3.97007804,26.7580384 3.94238778,26.5475088 C3.91469752,26.3369792 4.00611316,26.1284714 4.17971525,26.0061939 L10.0915724,21.3035801 C11.3272385,20.3213949 12.9967768,20.0825224 14.4582851,20.6788043 L19.0937185,22.5867219 L23.2656087,19.8692829 C23.9980746,19.3993105 24.9651223,19.5427894 25.5295812,20.2051839 L25.8990723,20.6452142 L26.5137711,20.238774 C27.2472807,19.7683411 28.2154935,19.9117801 28.7811027,20.574675 L29.4058785,21.3338112 C30.318037,20.8389938 31.4526626,21.0569207 32.1165994,21.8544578 Z M23.8635127,20.8232418 L20.3735018,23.1107274 L21.4584619,23.5574757 L24.9216008,21.2767081 L24.639444,20.9408071 C24.4463057,20.7136087 24.1152853,20.6634541 23.8635127,20.8232418 Z M23.7358709,25.0119268 L28.4317664,21.958587 L27.9010429,21.3069391 C27.7062414,21.0822052 27.3764045,21.0336578 27.1251116,21.1927328 L22.728168,24.0848402 C23.1546569,24.27802 23.5078816,24.6029867 23.7358709,25.0119268 Z M19.6983401,9.40260878 C18.5529177,9.40260878 18.5529177,9.82584399 18.5629948,10.0273846 C18.5629948,10.4472608 19.2851819,10.7428536 19.8091875,10.9578302 L20.1450884,11.0989086 C20.8101724,11.3642704 21.9253637,11.8076597 21.9253637,13.1512635 C21.9253637,14.1656844 21.3073059,14.8542814 20.2693718,15.055822 L20.2693718,15.8519072 C20.2693718,16.1672793 20.0137122,16.4229389 19.6983401,16.4229389 C19.382968,16.4229389 19.1273084,16.1672793 19.1273084,15.8519072 L19.1273084,15.082694 C18.5007729,14.9825279 17.8862,14.8181916 17.293289,14.5922786 C17.0941042,14.5255944 16.9476104,14.3549399 16.9118686,14.1479522 C16.8761269,13.9409645 16.9569084,13.7310652 17.1221962,13.6014454 C17.2874841,13.4718255 17.5105899,13.4434145 17.7030882,13.5274726 C18.3134269,13.7724301 18.9561077,13.9274428 19.6110059,13.9876569 L19.6983401,13.9876569 L19.7319302,13.9876569 C20.4272453,13.9574258 20.7833003,13.6987821 20.7833003,13.1680586 C20.7833003,12.637335 20.4608354,12.4525895 19.7218532,12.1603557 L19.5068766,12.0730214 L19.3657981,12.0159183 C18.633534,11.7068894 17.4108544,11.213115 17.4108544,10.0273846 C17.4108544,9.5504052 17.5955999,8.50575321 19.1273084,8.29749462 L19.1273084,7.51484538 C19.1273084,7.19947331 19.382968,6.94381374 19.6983401,6.94381374 C20.0137122,6.94381374 20.2693718,7.19947331 20.2693718,7.51484538 L20.2693718,8.2907766 C20.7350077,8.33810982 21.1964696,8.42007262 21.6499249,8.5359843 C21.9541662,8.61946514 22.1331279,8.93377603 22.0496471,9.23801731 C21.9661662,9.5422586 21.6518553,9.7212203 21.347614,9.63773945 C20.8080207,9.49972871 20.2550032,9.42088711 19.6983401,9.40260878 Z" transform="translate(-109.000000, -192.000000) translate(0.000000, 50.000000) translate(106.000000, 139.000000)"/></g></g></g></g></g></svg>