<svg width="64" height="64" viewBox="0 0 64 64" xmlns="http://www.w3.org/2000/svg"><path d="M46.844 4c.63 0 1.14.51 1.14 1.14l-.001 2.66h9.604A3.417 3.417 0 0 1 61 11.215v36.493a3.417 3.417 0 0 1-3.413 3.414H39.113c.014 2.643 1.163 5.141 3.49 7.6l2.284-.001a1.14 1.14 0 1 1 0 2.28H20.111a1.14 1.14 0 1 1 0-2.28h2.287c2.335-2.449 3.487-4.947 3.5-7.598L7.414 51.12A3.417 3.417 0 0 1 4 47.707V11.214a3.417 3.417 0 0 1 3.413-3.413l9.603-.001V5.14c0-.63.51-1.14 1.14-1.14h28.688zM36.833 51.12h-8.655c-.014 2.647-.947 5.19-2.784 7.6h14.22c-1.834-2.415-2.766-4.96-2.781-7.6zm21.887-8.55H6.28v5.137c0 .625.509 1.134 1.133 1.134h50.174c.624 0 1.133-.509 1.133-1.134v-5.136zM17.016 10.08H7.413c-.624 0-1.133.51-1.133 1.134v29.077h10.736V10.08zm40.57 0h-9.602v30.21H58.72V11.215c0-.624-.509-1.133-1.133-1.133zm-11.882-3.8H19.296v34.01h26.408V6.28zM28.43 28.131a1.14 1.14 0 0 1 0 1.613L24.774 33.4a1.136 1.136 0 0 1-1.612 0l-1.976-1.977a1.14 1.14 0 1 1 1.612-1.612l1.17 1.17 2.85-2.85a1.14 1.14 0 0 1 1.612 0zm14.578 1.495a1.14 1.14 0 1 1 0 2.28H32.025a1.14 1.14 0 1 1 0-2.28h10.983zM28.43 18.62a1.14 1.14 0 0 1 0 1.612l-3.656 3.656a1.136 1.136 0 0 1-1.612 0l-1.976-1.976a1.14 1.14 0 1 1 1.612-1.612l1.17 1.17 2.85-2.85a1.14 1.14 0 0 1 1.612 0zm14.578 1.494a1.14 1.14 0 1 1 0 2.28H32.025a1.14 1.14 0 1 1 0-2.28h10.983zM28.43 9.109a1.14 1.14 0 0 1 0 1.612l-3.656 3.656a1.136 1.136 0 0 1-1.612 0L21.186 12.4a1.14 1.14 0 1 1 1.612-1.612l1.17 1.17 2.85-2.85a1.14 1.14 0 0 1 1.612 0zm14.578 1.494a1.14 1.14 0 1 1 0 2.28H32.025a1.14 1.14 0 1 1 0-2.28h10.983z" fill="#76BBFB" fill-rule="evenodd"/></svg>