<svg width="64" height="64" viewBox="0 0 64 64" xmlns="http://www.w3.org/2000/svg"><g fill="#76BBFB" fill-rule="nonzero"><path d="M4.102 46.343H15.59v12.214c0 .648.26 1.27.722 1.728a2.471 2.471 0 0 0 1.74.715H45.95c.653 0 1.279-.257 1.74-.715.462-.458.721-1.08.721-1.728V46.343h11.487A4.12 4.12 0 0 0 62.8 45.15 4.057 4.057 0 0 0 64 42.27V24.357c0-1.08-.432-2.115-1.201-2.878a4.118 4.118 0 0 0-2.902-1.193h-1.64v-2.443c0-.648-.26-1.27-.721-1.728a2.473 2.473 0 0 0-1.741-.715H48.41V6.443c0-.648-.259-1.27-.72-1.727A2.47 2.47 0 0 0 45.948 4H21.333a.908.908 0 0 0-.32.065.821.821 0 0 0-.262.171l-4.924 4.886a.811.811 0 0 0-.172.26.88.88 0 0 0-.065.318v5.7H8.205c-.653 0-1.279.258-1.74.715a2.435 2.435 0 0 0-.721 1.728v2.443H4.103A4.118 4.118 0 0 0 1.2 21.479 4.055 4.055 0 0 0 0 24.357v17.914c0 1.08.432 2.116 1.201 2.88a4.12 4.12 0 0 0 2.902 1.192zm11.487-1.629h-.82v-3.256c0-.45.367-.815.82-.815v4.071zm31.18 13.843a.81.81 0 0 1-.24.576.824.824 0 0 1-.58.239H18.05a.818.818 0 0 1-.821-.815V40.643h29.539v17.914zm2.462-13.843h-.82v-4.071c.217 0 .425.086.58.239.153.152.24.36.24.575v3.257zM48.41 17.03h7.384c.219 0 .427.086.58.238a.81.81 0 0 1 .241.576v2.443H48.41v-3.257zM20.512 6.777v2.109h-2.125l2.125-2.109zm-3.282 3.737h4.103a.824.824 0 0 0 .58-.238.81.81 0 0 0 .24-.576V5.629h23.795c.218 0 .427.085.58.238.155.153.241.36.241.576v13.843H17.231v-9.772zm-9.846 7.329c0-.45.367-.814.82-.814h7.385v3.257H7.384v-2.443zM1.64 24.357c0-.647.259-1.269.72-1.727a2.474 2.474 0 0 1 1.741-.716h55.795c.654 0 1.28.258 1.742.716.46.458.72 1.08.72 1.727V26.8H1.641v-2.443zm0 4.071h60.718v13.843c0 .648-.26 1.27-.72 1.728a2.473 2.473 0 0 1-1.742.715h-9.025v-3.257c0-.648-.26-1.27-.721-1.727a2.47 2.47 0 0 0-1.74-.716H15.588a2.47 2.47 0 0 0-1.74.716 2.432 2.432 0 0 0-.721 1.727v3.257H4.102c-.653 0-1.279-.257-1.74-.715a2.436 2.436 0 0 1-.721-1.728V28.428z"/><path d="M20.513 44.714H32c.453 0 .82-.364.82-.814a.818.818 0 0 0-.82-.814H20.513a.818.818 0 0 0-.82.814c0 .45.367.814.82.814zM20.513 48.786h22.974c.454 0 .821-.365.821-.814a.818.818 0 0 0-.82-.815H20.512a.818.818 0 0 0-.82.815c0 .449.367.814.82.814zM20.513 52.857h22.974c.454 0 .821-.365.821-.814a.818.818 0 0 0-.82-.814H20.512a.818.818 0 0 0-.82.814c0 .45.367.814.82.814zM20.513 56.928h22.974c.454 0 .821-.364.821-.813a.818.818 0 0 0-.82-.815H20.512a.818.818 0 0 0-.82.815c0 .449.367.813.82.813zM5.743 24.357c0 .9-.734 1.629-1.64 1.629a1.635 1.635 0 0 1-1.642-1.629c0-.899.735-1.628 1.642-1.628.906 0 1.64.73 1.64 1.628M59.898 23.543h-2.461a.817.817 0 0 0-.821.814c0 .45.367.814.82.814h2.462c.453 0 .82-.364.82-.814a.817.817 0 0 0-.82-.814zM54.154 23.543h-2.462a.817.817 0 0 0-.82.814c0 .45.368.814.82.814h2.462c.453 0 .82-.364.82-.814a.817.817 0 0 0-.82-.814z"/></g></svg>