<svg width="64" height="64" viewBox="0 0 64 64" xmlns="http://www.w3.org/2000/svg"><path d="m37.527 5 12.667 11.745h.058v33.488a1 1 0 0 1-1 1H38.16v6.794c0 .46-.23.864-.634 1.037-.403.23-.863.172-1.209-.058l-4.721-3.282-4.721 3.282c-.173.173-.403.23-.634.23-.172 0-.345 0-.518-.115-.403-.23-.633-.633-.633-1.036v-6.218H14a1 1 0 0 1-1-1V6a1 1 0 0 1 1-1h23.527zM35.8 47.721c-1.267.634-2.706 1.037-4.203 1.037-1.497 0-2.936-.403-4.203-1.037v8.118l3.512-2.475a1.123 1.123 0 0 1 1.324 0l3.57 2.475zm0-40.418H15.303v42.26h9.788v-3.57c-1.67-1.611-2.649-3.914-2.649-6.39 0-5.067 4.146-9.155 9.155-9.155 5.067 0 9.155 4.146 9.155 9.155 0 2.476-1.037 4.721-2.649 6.39v2.995h9.73V18.99H35.8V7.303zm-4.203 25.449c-3.8 0-6.852 3.109-6.852 6.851 0 3.8 3.11 6.852 6.852 6.852 3.742 0 6.851-3.052 6.851-6.852 0-3.742-3.051-6.851-6.851-6.851zM42.055 24a1 1 0 0 1 1 1v.303a1 1 0 0 1-1 1H21.139a1 1 0 0 1-1-1V25a1 1 0 0 1 1-1h20.916zm-12.091-7.485a1 1 0 0 1 1 1v.303a1 1 0 0 1-1 1h-8.825a1 1 0 0 1-1-1v-.303a1 1 0 0 1 1-1h8.825zm8.197-7.83v8.003h8.636l-8.636-8.003z" fill="#76BBFB" fill-rule="evenodd"/></svg>