<svg width="206" height="40" viewBox="0 0 206 40" xmlns="http://www.w3.org/2000/svg" xmlns:xlink="http://www.w3.org/1999/xlink">
    <defs>
        <path id="ezpo8b2ika" d="M0 0h40v39.993H0z"/>
    </defs>
    <g fill="none" fill-rule="evenodd">
        <g>
            <mask id="zqjxbxms1b" fill="#fff">
                <use xlink:href="#ezpo8b2ika"/>
            </mask>
            <path d="M20.001 37.819c-2.76 0-5.44-.64-7.85-1.823l.063-.05c.02-.018.041-.034.062-.051.076-.064.15-.13.222-.2l.986-.987 1.19 1.19A3.268 3.268 0 0 0 17 36.86a3.265 3.265 0 0 0 2.327-.963l1.02-1.02 1.019 1.02c.08.08.163.156.25.225.008.008.018.014.027.02.078.063.157.122.239.176.025.016.051.03.077.045.067.042.134.083.203.12l.008.003c.093.049.188.093.284.132l.048.016c.083.033.167.063.253.089.1.029.201.053.303.073l.005.001c1.038.2 2.154-.1 2.956-.9l11.168-11.165C35.107 32.269 28.19 37.819 20 37.819zM9.611 5.512l14.21 14.209a1.116 1.116 0 0 1 0 1.577L13.485 31.634l-.458.459-1.08 1.078-.986.986a1.117 1.117 0 0 1-1.577 0l-4.086-4.084a17.658 17.658 0 0 1-2.97-7.76l.292.293 9.83-9.829-1.537-1.536-8.738 8.735A17.762 17.762 0 0 1 9.61 5.512zM11.5 4.327a17.809 17.809 0 0 1 2.45-1.1l.293.293.714.713.824.824 14.87 14.865a1.122 1.122 0 0 1 0 1.581L17.79 34.36a1.117 1.117 0 0 1-1.578 0l-1.19-1.19 10.337-10.336a3.292 3.292 0 0 0 0-4.651L11.5 4.327zm26.09 12.767L22.9 2.41c7.51 1.234 13.454 7.177 14.689 14.685zM22.903 34.361l-1.019-1.02 10.305-10.303a3.298 3.298 0 0 0 0-4.653L17.318 3.52l1.02-1.02c.037-.036.076-.07.116-.1l.042-.029a1.07 1.07 0 0 1 .086-.055c.017-.01.035-.017.053-.026.028-.014.056-.027.084-.038.02-.008.04-.014.06-.02.02-.007.04-.012.06-.017.156-.012.314-.02.472-.025l.024.004.047.01.03.008a.961.961 0 0 1 .048.013l.032.01a.915.915 0 0 1 .05.02l.033.013a1.1 1.1 0 0 1 .085.042l.053.031a.872.872 0 0 1 .033.021c.02.013.038.027.057.042.01.007.02.013.028.021.029.023.057.048.084.076L37.343 19.92a1.122 1.122 0 0 1 0 1.581L24.483 34.36a1.12 1.12 0 0 1-1.58.001zM20.001 0c-.212 0-.42.005-.628.012a3.251 3.251 0 0 0-.786.035h-.03l-.045.01c-1.34.097-2.668.33-3.96.696l-.01-.01-.632.202-1.7.542.064.064c-.814.34-1.605.736-2.368 1.182l-.016-.016-.737.476-1.13.73.032.033A19.925 19.925 0 0 0 0 19.996c0 4.101 1.233 8.042 3.567 11.396l.055.08.006.006a20.015 20.015 0 0 0 16.373 8.515C31.029 39.993 40 31.022 40 19.995 40 8.97 31.029 0 20.001 0z" fill="#E24D58" fill-rule="nonzero" mask="url(#zqjxbxms1b)"/>
            <path d="m6.286 26.272 9.83-9.829-1.537-1.537-9.83 9.83 1.537 1.536zm3.667 3.667 9.83-9.83-1.537-1.537-9.83 9.83 1.537 1.537z" fill="#E24D58" fill-rule="nonzero" mask="url(#zqjxbxms1b)"/>
        </g>
        <g fill="#416385" fill-rule="nonzero">
            <path d="M58.02 13.97c0 1.317-.244 2.482-.735 3.497-.49 1.014-1.187 1.795-2.09 2.342-.903.548-1.932.821-3.087.821-1.155 0-2.179-.264-3.073-.793-.894-.529-1.59-1.285-2.09-2.268-.5-.984-.762-2.112-.787-3.386v-.761c0-1.324.244-2.491.73-3.502.488-1.012 1.187-1.792 2.096-2.343.91-.55 1.945-.826 3.105-.826 1.149 0 2.173.273 3.073.817.9.544 1.6 1.319 2.1 2.324s.753 2.157.759 3.456v.621zm-3.323-.567c0-1.342-.225-2.36-.675-3.057-.45-.695-1.095-1.043-1.933-1.043-1.638 0-2.504 1.224-2.598 3.674l-.009.992c0 1.324.22 2.341.661 3.052.441.712 1.096 1.067 1.965 1.067.826 0 1.462-.35 1.909-1.048.447-.699.673-1.704.68-3.015v-.622zM62.444 10.407l.102 1.178c.696-.91 1.655-1.364 2.878-1.364 1.049 0 1.832.313 2.35.937.519.625.788 1.565.806 2.82v6.467h-3.147v-6.337c0-.507-.103-.88-.307-1.118-.205-.238-.578-.357-1.118-.357-.614 0-1.07.242-1.369.724v7.088h-3.138V10.407h2.943zM73.627 20.445H70.48V6.195h3.147zM78.87 20.445h-3.148V10.407h3.147v10.038zM75.535 7.818c0-.445.161-.81.484-1.094.323-.285.742-.427 1.257-.427.515 0 .934.142 1.257.427.323.284.484.649.484 1.094 0 .446-.161.81-.484 1.095-.323.285-.742.427-1.257.427-.515 0-.934-.142-1.257-.427a1.393 1.393 0 0 1-.484-1.095zM83.683 10.407l.103 1.178c.695-.91 1.654-1.364 2.877-1.364 1.05 0 1.833.313 2.351.937.519.625.787 1.565.806 2.82v6.467h-3.148v-6.337c0-.507-.102-.88-.307-1.118-.205-.238-.577-.357-1.117-.357-.615 0-1.071.242-1.369.724v7.088h-3.138V10.407h2.942zM96.431 20.63c-1.546 0-2.797-.459-3.753-1.377-.956-.919-1.434-2.114-1.434-3.586v-.26c0-1.026.191-1.933.573-2.718a4.18 4.18 0 0 1 1.672-1.823c.732-.43 1.601-.645 2.607-.645 1.415 0 2.533.438 3.352 1.313.82.875 1.229 2.095 1.229 3.66v1.215h-6.239c.112.563.357 1.005.736 1.327.379.321.869.482 1.471.482.993 0 1.77-.346 2.328-1.039l1.434 1.689c-.391.538-.945.966-1.662 1.285a5.635 5.635 0 0 1-2.314.477zm-.354-7.997c-.919 0-1.465.606-1.639 1.819h3.166v-.242c.013-.5-.115-.889-.382-1.164-.266-.275-.648-.413-1.145-.413zM117.801 15.871c-.043.94-.298 1.77-.764 2.491-.465.72-1.118 1.279-1.96 1.675-.84.395-1.801.593-2.882.593-1.781 0-3.184-.578-4.208-1.734-1.025-1.157-1.537-2.79-1.537-4.899v-.668c0-1.323.231-2.482.694-3.474.462-.993 1.128-1.76 1.997-2.301.87-.541 1.875-.812 3.017-.812 1.645 0 2.967.432 3.967 1.294 1 .863 1.567 2.052 1.704 3.568h-3.26c-.024-.823-.232-1.414-.623-1.772-.391-.36-.987-.539-1.788-.539-.813 0-1.409.304-1.788.91-.378.606-.577 1.574-.596 2.903v.956c0 1.441.182 2.47.545 3.09.363.618.989.927 1.876.927.752 0 1.326-.176 1.723-.529.397-.352.608-.912.633-1.679h3.25zM124.077 20.63c-1.546 0-2.797-.459-3.753-1.377-.956-.919-1.434-2.114-1.434-3.586v-.26c0-1.026.191-1.933.573-2.718a4.18 4.18 0 0 1 1.672-1.823c.732-.43 1.601-.645 2.607-.645 1.415 0 2.533.438 3.352 1.313.82.875 1.229 2.095 1.229 3.66v1.215h-6.239c.112.563.357 1.005.736 1.327.379.321.869.482 1.471.482.993 0 1.77-.346 2.328-1.039l1.434 1.689c-.391.538-.945.966-1.662 1.285a5.635 5.635 0 0 1-2.314.477zm-.354-7.997c-.919 0-1.465.606-1.639 1.819h3.166v-.242c.013-.5-.115-.889-.382-1.164-.266-.275-.648-.413-1.145-.413zM135.68 13.236l-1.034-.074c-.987 0-1.62.31-1.9.928v6.355h-3.138V10.407h2.942l.103 1.29c.528-.984 1.263-1.476 2.207-1.476.335 0 .627.037.875.112l-.056 2.903zM140.465 7.911v2.496h1.658v2.17h-1.658v4.593c0 .377.069.64.205.788.137.149.407.223.81.223.31 0 .571-.018.782-.056v2.236a5.81 5.81 0 0 1-1.769.27c-1.08 0-1.878-.254-2.393-.761-.515-.508-.773-1.278-.773-2.31v-4.982h-1.285v-2.171h1.285V7.91h3.138zM146.667 20.445h-3.148V10.407h3.148v10.038zm-3.334-12.627c0-.445.162-.81.484-1.094.323-.285.742-.427 1.258-.427.515 0 .934.142 1.257.427.322.284.484.649.484 1.094 0 .446-.162.81-.484 1.095-.323.285-.742.427-1.257.427-.516 0-.935-.142-1.258-.427a1.393 1.393 0 0 1-.484-1.095zM149.33 20.445v-7.867h-1.462v-2.171h1.462v-.334c.019-1.336.46-2.36 1.322-3.071.82-.668 1.965-1.002 3.436-1.002.925 0 2.018.18 3.278.538l-.429 2.468-.521-.14a8.326 8.326 0 0 0-2.142-.268c-1.198 0-1.797.544-1.797 1.632v.177h1.974v2.17h-1.974v7.868h-3.147zm9.48 0h-3.158V10.407h3.157v10.038zM164.983 18.218c.44 0 .782-.119 1.024-.357s.36-.57.354-.997h2.942c0 1.1-.396 2.004-1.187 2.709-.792.705-1.811 1.057-3.059 1.057-1.465 0-2.62-.457-3.464-1.373-.844-.915-1.266-2.183-1.266-3.803v-.13c0-1.015.188-1.91.563-2.686.376-.776.917-1.373 1.625-1.79.708-.418 1.546-.627 2.514-.627 1.31 0 2.35.362 3.12 1.086.77.723 1.154 1.704 1.154 2.94h-2.942c0-.519-.128-.918-.382-1.196-.255-.279-.596-.418-1.024-.418-.814 0-1.288.517-1.425 1.55-.043.327-.065.779-.065 1.354 0 1.008.12 1.707.363 2.097.242.39.627.584 1.155.584zM176.305 20.445c-.111-.204-.21-.504-.298-.9-.577.724-1.384 1.085-2.42 1.085-.95 0-1.757-.286-2.422-.858-.664-.572-.996-1.29-.996-2.157 0-1.088.404-1.91 1.21-2.468.808-.556 1.98-.835 3.52-.835h.969v-.528c0-.922-.4-1.383-1.201-1.383-.745 0-1.118.365-1.118 1.095h-3.138c0-.97.415-1.76 1.243-2.366.83-.606 1.886-.909 3.17-.909 1.286 0 2.3.313 3.046.937.745.625 1.127 1.481 1.145 2.57v4.444c.013.921.155 1.627.428 2.115v.158h-3.138zm-1.964-2.041c.39 0 .715-.084.973-.25.257-.168.442-.356.554-.567v-1.605h-.913c-1.092 0-1.639.489-1.639 1.466 0 .285.097.515.29.691.192.177.437.265.735.265zM184.407 7.911v2.496h1.657v2.17h-1.657v4.593c0 .377.068.64.204.788.137.149.407.223.81.223.31 0 .572-.018.783-.056v2.236a5.81 5.81 0 0 1-1.77.27c-1.08 0-1.877-.254-2.393-.761-.515-.508-.772-1.278-.772-2.31v-4.982h-1.285v-2.171h1.285V7.91h3.138zM192.172 20.63c-1.545 0-2.796-.459-3.752-1.377-.956-.919-1.434-2.114-1.434-3.586v-.26c0-1.026.19-1.933.572-2.718a4.18 4.18 0 0 1 1.672-1.823c.732-.43 1.601-.645 2.607-.645 1.415 0 2.533.438 3.352 1.313.82.875 1.23 2.095 1.23 3.66v1.215h-6.24c.112.563.358 1.005.736 1.327.379.321.87.482 1.472.482.993 0 1.769-.346 2.327-1.039l1.434 1.689c-.39.538-.945.966-1.662 1.285a5.635 5.635 0 0 1-2.314.477zm-.353-7.997c-.92 0-1.466.606-1.64 1.819h3.167v-.242c.012-.5-.115-.889-.382-1.164-.267-.275-.649-.413-1.145-.413zM202.955 17.625c0-.266-.14-.48-.419-.64-.28-.161-.81-.328-1.592-.502-.782-.173-1.428-.4-1.937-.681-.509-.282-.897-.624-1.164-1.026a2.441 2.441 0 0 1-.4-1.382c0-.922.381-1.68 1.145-2.278.764-.596 1.763-.895 2.998-.895 1.329 0 2.396.3 3.203.9.807.6 1.211 1.389 1.211 2.366h-3.147c0-.804-.426-1.206-1.276-1.206-.329 0-.605.091-.829.273a.846.846 0 0 0-.335.682c0 .279.137.504.41.678.273.173.709.315 1.308.426a11.34 11.34 0 0 1 1.578.4c1.515.519 2.272 1.45 2.272 2.792 0 .915-.408 1.66-1.224 2.236-.816.575-1.873.862-3.17.862-.864 0-1.633-.154-2.31-.463-.677-.31-1.204-.73-1.583-1.262s-.568-1.092-.568-1.68h2.933c.013.464.168.803.466 1.016.298.214.68.32 1.145.32.428 0 .75-.086.964-.26a.83.83 0 0 0 .321-.676z"/>
            <g>
                <path d="M48.485 34.542a2.521 2.521 0 0 1-1.252-.334 2.261 2.261 0 0 1-.857-.923 3.408 3.408 0 0 1-.366-1.384 5.545 5.545 0 0 1 .172-1.71c.15-.605.392-1.137.725-1.596a3.293 3.293 0 0 1 1.174-1.03c.45-.228.935-.337 1.458-.327.48.01.9.123 1.26.34.359.216.642.526.847.932.206.405.324.865.353 1.38a5.723 5.723 0 0 1-.186 1.767c-.157.605-.4 1.13-.73 1.572-.33.443-.717.775-1.16.996a3.04 3.04 0 0 1-1.438.317zm2.034-3.847.04-.464c.032-.58-.046-1.019-.233-1.318-.188-.3-.473-.456-.856-.47-.598-.019-1.072.245-1.423.792-.352.547-.55 1.312-.596 2.295-.032.576.044 1.02.23 1.33.187.311.476.473.868.486.513.023.938-.176 1.274-.598.337-.422.557-1.018.662-1.79l.034-.263zM58.735 34.445h-1.392l-1.985-4.741-.828 4.74h-1.436l1.24-7.109h1.387l1.99 4.751.828-4.75h1.43zM62.363 33.268h3.029l-.206 1.177H60.72l1.24-7.11h1.436zM68.275 34.445H66.84l1.235-7.11h1.436zM75.976 34.445h-1.392L72.6 29.704l-.828 4.74h-1.436l1.24-7.109h1.387l1.99 4.751.828-4.75h1.431zM82.672 31.364h-2.734l-.333 1.904h3.214l-.205 1.177h-4.651l1.24-7.11h4.64l-.21 1.187h-3.2l-.3 1.694h2.745zM91.561 32.98h-2.49l-.735 1.465h-1.583l3.813-7.11h1.328l1.358 7.11h-1.465l-.226-1.465zm-1.901-1.187h1.72l-.402-2.646-1.318 2.646zM96.547 31.94l-.441 2.505H94.67l1.24-7.11 2.5.005c.77 0 1.376.214 1.818.64.44.426.633.983.578 1.67-.052.697-.344 1.253-.875 1.67-.53.416-1.208.625-2.031.625l-1.353-.005zm.201-1.187 1.196.01c.385 0 .705-.1.96-.298.255-.198.407-.467.456-.805.05-.339-.006-.61-.164-.81-.159-.203-.393-.31-.703-.323l-1.353-.005-.392 2.231zM103.577 31.94l-.442 2.505H101.7l1.24-7.11 2.499.005c.77 0 1.377.214 1.818.64.441.426.634.983.578 1.67-.052.697-.343 1.253-.874 1.67-.531.416-1.208.625-2.032.625l-1.352-.005zm.2-1.187 1.196.01c.386 0 .706-.1.96-.298.256-.198.408-.467.457-.805.049-.339-.006-.61-.165-.81-.158-.203-.392-.31-.703-.323l-1.352-.005-.392 2.231zM110.37 33.268h3.03l-.206 1.177h-4.465l1.24-7.11h1.436zM116.283 34.445h-1.436l1.235-7.11h1.436zM124.16 32.072a2.653 2.653 0 0 1-.504 1.306c-.281.38-.647.67-1.098.874-.451.203-.938.3-1.46.29-.471-.01-.881-.118-1.23-.324a2.155 2.155 0 0 1-.827-.899 3.31 3.31 0 0 1-.34-1.355c-.023-.4.019-.898.125-1.494a4.725 4.725 0 0 1 .568-1.587c.273-.462.597-.828.973-1.098a2.943 2.943 0 0 1 1.813-.547c.739.013 1.324.24 1.757.68.433.442.671 1.055.713 1.84l-1.43-.006c0-.449-.09-.778-.27-.986-.18-.208-.46-.319-.838-.332a1.457 1.457 0 0 0-1.208.523c-.315.364-.527.896-.635 1.596-.104.68-.15 1.19-.137 1.529.016.43.113.746.29.95.175.203.422.31.74.32.437.015.787-.088 1.05-.311s.437-.543.522-.96l1.426-.01zM129.66 32.98h-2.489l-.735 1.465h-1.583l3.813-7.11h1.328l1.358 7.11h-1.466l-.225-1.465zm-1.9-1.187h1.72l-.402-2.646-1.319 2.646zM138.43 28.522h-2.117l-1.03 5.923h-1.435l1.03-5.923h-2.094l.211-1.187h5.646zM140.485 34.445h-1.436l1.235-7.11h1.436zM145.412 34.542a2.521 2.521 0 0 1-1.252-.334 2.261 2.261 0 0 1-.857-.923 3.408 3.408 0 0 1-.365-1.384 5.545 5.545 0 0 1 .171-1.71c.15-.605.392-1.137.725-1.596a3.293 3.293 0 0 1 1.174-1.03c.45-.228.935-.337 1.458-.327.48.01.9.123 1.26.34.36.216.642.526.848.932.205.405.323.865.352 1.38a5.723 5.723 0 0 1-.186 1.767c-.157.605-.4 1.13-.73 1.572-.33.443-.716.775-1.16.996a3.04 3.04 0 0 1-1.438.317zm2.034-3.847.04-.464c.032-.58-.045-1.019-.233-1.318-.188-.3-.473-.456-.855-.47-.598-.019-1.073.245-1.424.792s-.55 1.312-.596 2.295c-.032.576.045 1.02.23 1.33.187.311.476.473.868.486.513.023.938-.176 1.274-.598.337-.422.557-1.018.662-1.79l.034-.263zM155.662 34.445h-1.392l-1.985-4.741-.828 4.74h-1.436l1.24-7.109h1.387l1.99 4.751.828-4.75h1.43zM165.506 31.54h-2.734l-.51 2.905h-1.436l1.24-7.11h4.518l-.21 1.187h-3.078l-.323 1.836h2.744zM169.777 34.542a2.521 2.521 0 0 1-1.253-.334 2.261 2.261 0 0 1-.857-.923 3.408 3.408 0 0 1-.365-1.384 5.545 5.545 0 0 1 .171-1.71c.15-.605.392-1.137.726-1.596a3.293 3.293 0 0 1 1.173-1.03c.45-.228.936-.337 1.458-.327.48.01.9.123 1.26.34.36.216.642.526.848.932.205.405.323.865.352 1.38a5.723 5.723 0 0 1-.186 1.767c-.157.605-.4 1.13-.73 1.572-.33.443-.716.775-1.159.996a3.04 3.04 0 0 1-1.438.317zm2.033-3.847.04-.464c.032-.58-.045-1.019-.233-1.318-.188-.3-.473-.456-.855-.47-.598-.019-1.073.245-1.424.792s-.55 1.312-.595 2.295c-.033.576.044 1.02.23 1.33.186.311.475.473.867.486.513.023.938-.176 1.275-.598.336-.422.557-1.018.661-1.79l.034-.263zM177.443 31.842h-1.166l-.456 2.603h-1.436l1.24-7.11 2.362.005c.79 0 1.4.186 1.826.557.426.371.615.887.566 1.548-.069.976-.592 1.655-1.568 2.036l1.004 2.886v.078h-1.529l-.843-2.603zm-.96-1.186 1.068.01c.38-.007.692-.109.939-.306.246-.197.394-.464.443-.803.046-.316-.005-.563-.152-.742-.147-.18-.38-.275-.7-.288l-1.226-.005-.372 2.134zM184.434 27.335l.877 5.142 2.661-5.142h1.911l-1.24 7.11h-1.44l.352-2.027.696-3.164-2.734 5.19h-.985l-.956-5.37-.46 3.5-.33 1.87h-1.435l1.24-7.109zM194.556 32.545c.068-.387-.123-.683-.574-.888l-.946-.376c-1.098-.489-1.619-1.16-1.563-2.017.023-.397.153-.749.392-1.055.238-.306.573-.546 1.005-.72a3.569 3.569 0 0 1 1.396-.251c.69.013 1.247.217 1.672.613.424.395.633.925.627 1.589h-1.431c.016-.322-.055-.573-.213-.752-.159-.179-.405-.272-.738-.278a1.491 1.491 0 0 0-.853.222.911.911 0 0 0-.431.637c-.062.355.176.636.716.845l.646.244.373.17c.964.476 1.415 1.143 1.353 2.003-.03.42-.165.782-.405 1.086-.24.305-.567.538-.98.7-.413.164-.868.24-1.365.23a3.066 3.066 0 0 1-1.352-.317 2.097 2.097 0 0 1-.902-.855 2.206 2.206 0 0 1-.27-1.171l1.436.004c-.046.772.335 1.164 1.142 1.177.35 0 .637-.076.863-.23a.893.893 0 0 0 .402-.61z"/>
            </g>
        </g>
    </g>
</svg>
