<svg width="198" height="200" viewBox="0 0 198 200" xmlns="http://www.w3.org/2000/svg"><defs><linearGradient x1="49.364%" y1="71.004%" x2="56.086%" y2="-84.24%" id="nyfg3qg7ga"><stop stop-opacity="0" offset="0%"/><stop offset="99%"/></linearGradient><linearGradient x1="105.705%" y1="1409.722%" x2="85.463%" y2="1433.236%" id="nep4t5m3lb"><stop stop-color="#FFF" stop-opacity="0" offset="2%"/><stop stop-color="#FFF" stop-opacity=".39" offset="58%"/><stop stop-color="#FFF" stop-opacity=".68" offset="68%"/><stop stop-color="#FFF" offset="100%"/></linearGradient><linearGradient x1="108.838%" y1="1405.262%" x2="76.373%" y2="1424.902%" id="c1h0aem51c"><stop stop-color="#FFF" stop-opacity="0" offset="2%"/><stop stop-color="#FFF" stop-opacity=".39" offset="58%"/><stop stop-color="#FFF" stop-opacity=".68" offset="68%"/><stop stop-color="#FFF" offset="100%"/></linearGradient></defs><g fill="none" fill-rule="evenodd"><path d="M193.959 121.454c3.911-10.536 6.328-22.886.81-32.7-3.753-6.667-10.509-10.972-17.265-14.569-19.383-10.295-40.92-17.114-57.683-31.255-2.747-2.317-5.39-4.846-8.64-6.359-3.446-1.61-7.327-1.956-11.118-2.258-16.402-1.332-33.232-2.325-48.974 2.461-15.742 4.787-30.358 16.557-34.021 32.632-2.815 12.41 1.103 25.76-2.53 37.96C11.535 117.481 3.615 125.64.95 135.86c-4.504 17.068 7.612 35.092 23.422 42.897 15.81 7.804 34.269 7.525 51.797 6.118 8.82-.715 17.664-1.708 26.214-3.981 7.68-2.04 15.149-5.118 23.061-5.622 12.341-.79 26.026 4.463 36.37-2.325 3.611-2.363 6.299-5.976 9.992-8.211 7.642-4.62 11.44-5.863 13.115-14.84 1.892-10.04 5.517-18.943 9.038-28.44z" fill="#8FC5F8" fill-rule="nonzero" opacity=".18"/><path d="M86.881 127.482s-53.223 6.405-58.718 19.846A202.966 202.966 0 0 1 15.4 172.652s44.448 36.658 79.685 25.091 38.188-19.146 55.986-17.821c17.8 1.325 32.595-18.483 32.595-26.732 0-8.248-55.033-25.188-63.898-24.646-8.866.541-32.888-1.062-32.888-1.062z" fill="#8FC5F8" fill-rule="nonzero"/><path d="M88.127 126.97c0 1.89-.502-1.218-1.26.512-1.007 2.303-2.688 8.956-3.8 11.199-1.913 3.845-.06 8.76 3.199 11.582 3.258 2.822 7.574 4.011 11.77 4.96 6.209 1.4 13.303 2.257 18.415-1.506 4.887-3.62 6.276-10.393 5.87-16.466a78.694 78.694 0 0 0-1.291-8.97l-3.61-19.688a1.664 1.664 0 0 0-.7-1.268 1.656 1.656 0 0 0-1.425-.237c-6.756-.083-17.656.12-23.557 3.906-5.51 3.469-3.626 9.565-3.61 15.977z" fill="#FFB9B8" fill-rule="nonzero"/><path d="M87.79 131.328a15.545 15.545 0 0 0 10.885 8.391 19.41 19.41 0 0 0 13.692-2.49c3.348-1.987 6.223-4.99 7.402-8.7.567-2.116.86-4.297.87-6.488l.293-6.276c-1.891 2.754-5.33 4.004-8.632 4.47-8.318 1.152-15.562-1.859-23.347-4.116-3.656-1.077-3.588 1.159-3.295 4.267.345 3.635.578 7.548 2.132 10.942z" fill="#D79B9B" fill-rule="nonzero"/><path d="M74.548 105.199s13.512 22.449 22.993 23.503c9.481 1.053 23.692.654 33.78-22.954 10.09-23.608 11.862-55.013-4.188-60.605-.015 0-78.702-21.065-52.585 60.056z" fill="#FFB9B8" fill-rule="nonzero"/><path d="M130.12 106.117c-.284 1.505-.645 3.146-1.816 4.116-1.606 1.363-4.084.919-5.93-.067-3.754-2.002-6.299-5.72-9.226-8.85a20.806 20.806 0 0 0-4.302-3.568l1.704 3.394c.339.616.608 1.267.804 1.942a4.753 4.753 0 0 1 0 2.258c-.03.17-.1.33-.203.466-.158.16-.359.27-.578.316-.925.238-1.876.357-2.83.354a12.731 12.731 0 0 1-4.977-.459c-.466-.173-.984-.497-1.029-1-.06-.7.819-1.092 1.502-1.182.953 0 1.854-.12 2.792 0 1.291.12 1.246.225 1.254-1.122 0-1.934 0-3.845-.053-5.802a8.898 8.898 0 0 0-5.33-.753c-3.528.693-6.087 3.71-8.062 6.713-1.974 3.003-3.798 6.344-6.801 8.264-3.386 2.122-9.391 1.693-9.947-3.01-.6-5.005 2.305-11.169 5.09-15.113a28.648 28.648 0 0 1 15.352-10.912 16.73 16.73 0 0 1 6.756-.7c2.5.324 4.834 1.445 7.109 2.544l11.943 5.75c2.05.985 4.166 2.024 5.585 3.808 2.68 3.416 2.005 8.316 1.194 12.613z" fill="url(#nyfg3qg7ga)" fill-rule="nonzero"/><path d="M154.128 42.803c.06.564.615.925 1.043 1.324 1.78 1.708 1.029 4.84-.653 6.645-1.681 1.807-4.031 2.83-5.908 4.433a5.873 5.873 0 0 0-2.14 3.658c-.33 1.979.248 4.109.324 6.336a11.12 11.12 0 0 1-.083 1.874 33.162 33.162 0 0 1-5.795 14.796c-.924 1.257-2.14 2.544-3.694 2.611-2.515.113-3.948-2.8-4.624-5.23a103.159 103.159 0 0 1-3.003-15.052c-.24-1.926-.425-3.855-.555-5.787-.496 2.333-3.866 2.897-5.856 1.588a4.58 4.58 0 0 1-.33-.24c-1.764-1.348-2.68-3.56-3.656-5.593-1.05-2.152-2.492-4.402-4.797-5.004-2.612-.67-5.254 0-7.934-.106-4.107-.173-8.22-.632-12.319-.94-2.252-.166-4.504-.331-6.606.474-.738.27-1.418.68-2.004 1.204a4.521 4.521 0 0 0-1.57 3.86c-4.158-.142-4.308 3.207-7.386 6.021-3.078 2.815-8.573 5.404-6.178 8.813 2.492 3.552.608 5.893.375 10.092-.383 6.969-2.522 13.712-4.64 20.372-3.212-4.613-6.477-9.34-7.919-14.765-.75-2.732-1.193-5.411-1.696-8.045-.751-4.2-1.652-8.331-3.754-12.463a36.665 36.665 0 0 1-2.424-4.9c-.871-2.58-.751-5.38-.571-8.097.345-5.802.803-12.041 4.414-16.557a13.358 13.358 0 0 1 4.94-3.763c2.642-1.249 5.465-2.016 7.89-3.875a10.136 10.136 0 0 0 2.904-4.042c1.322-2.957 2.057-6.502 3.649-9.03A27.434 27.434 0 0 1 85.305 3.33c7.957-3.65 17.093-3.876 25.77-2.687 7.185.986 14.384 2.958 20.352 7.082a54.77 54.77 0 0 1 7.086 6.103c5.353 5.23 10.375 10.875 17.446 12.84 2.38.67 5.18 1.053 6.524 3.13 1.344 2.077.42 5.14-1.329 7.022-1.749 1.881-4.121 3.01-6.163 4.575-.39.354-.923.828-.863 1.408z" fill="#3F3D56" fill-rule="nonzero"/><path d="M94.44 69.037a12.125 12.125 0 0 0-3.49-4.214c-5.69-4.659-13.602-6.69-20.666-4.666-1.372.37-2.68.946-3.881 1.708a17.488 17.488 0 0 0-4.722 5.095c-7.74 11.53-10.33 25.693-11.426 39.503-.247 3.13.09 6.457-1.186 9.324-10.674 23.985-33.93 54.126-33.645 56.865 8.34 7 22.843 16.594 29.412 16.835 3.685-6.773 17.903-55.585 20.891-62.712 1.179-2.8 3.266-8.94 4.992-11.44 4.624-6.712 11.876-6.772 17.348-12.793a12.244 12.244 0 0 0 3.056-5.268c.279-1.727.322-3.484.127-5.223a46.298 46.298 0 0 1 1.104-12.575c.78-3.47 3.693-6.841 2.087-10.439z" fill="#FFB9B8" fill-rule="nonzero"/><rect fill="#77AADA" fill-rule="nonzero" x="54.82" y="80.981" width="6.966" height="7.187" rx="3.055"/><path d="M114.356 69.037a12.034 12.034 0 0 1 3.514-4.214c5.682-4.659 13.602-6.69 20.666-4.666 1.37.37 2.676.946 3.874 1.708a17.39 17.39 0 0 1 4.721 5.095c7.732 11.522 10.322 25.693 11.426 39.503.247 3.13-.098 6.457 1.178 9.324 10.675 23.978 26.852 35.966 26.575 38.705 4.789 15.473-16.516 24.835-25.193 24.038-3.686-6.773-15.014-44.636-18.017-51.77-1.17-2.8-3.258-8.94-4.984-11.44-4.625-6.712-11.861-6.735-17.349-12.793a12.199 12.199 0 0 1-3.055-5.268 19.291 19.291 0 0 1-.128-5.223 46.6 46.6 0 0 0-1.103-12.575c-.818-3.455-3.709-6.826-2.125-10.424z" fill="#FFB9B8" fill-rule="nonzero"/><rect fill="#77AADA" fill-rule="nonzero" x="143.956" y="80.981" width="6.966" height="7.187" rx="3.055"/><path d="M93.735 73.222s7.807 5.125 18.31-.407v17.543s-9.294-6.615-17.372 0l-.938-17.136z" fill="#77AADA" fill-rule="nonzero"/><path fill="#8FC5F8" fill-rule="nonzero" d="M94.951 79.122h16.658v5.328H94.951z"/><ellipse fill="#8FC5F8" fill-rule="nonzero" cx="77.776" cy="83.818" rx="19.188" ry="19.236"/><ellipse fill="url(#nep4t5m3lb)" fill-rule="nonzero" opacity=".69" cx="77.776" cy="83.818" rx="19.188" ry="19.236"/><ellipse fill="#FFF" fill-rule="nonzero" cx="77.663" cy="83.999" rx="16.613" ry="16.655"/><ellipse fill="#8FC5F8" fill-rule="nonzero" cx="128.139" cy="83.818" rx="19.188" ry="19.236"/><ellipse fill="url(#c1h0aem51c)" fill-rule="nonzero" opacity=".69" cx="128.139" cy="83.818" rx="19.188" ry="19.236"/><ellipse fill="#FFF" fill-rule="nonzero" cx="128.019" cy="83.999" rx="16.613" ry="16.655"/><path d="m130.314 74.64 4.156 3.855h.019v10.988a.328.328 0 0 1-.328.328h-3.64v2.23a.357.357 0 0 1-.207.34.375.375 0 0 1-.397-.02l-1.55-1.076-1.548 1.076a.284.284 0 0 1-.208.076c-.057 0-.114 0-.17-.038a.398.398 0 0 1-.208-.34v-2.04h-3.64a.328.328 0 0 1-.327-.328V74.969c0-.181.147-.328.328-.328h7.72zm-.567 14.019a3.1 3.1 0 0 1-1.38.34 3.1 3.1 0 0 1-1.378-.34v2.663l1.152-.812a.369.369 0 0 1 .435 0l1.17.812zm0-13.263h-6.726v13.867h3.212v-1.171a2.909 2.909 0 0 1-.87-2.097 3.011 3.011 0 0 1 3.005-3.004 3.011 3.011 0 0 1 3.004 3.004c0 .812-.34 1.549-.87 2.097v.982h3.193v-9.843h-3.948v-3.835zm-1.38 8.35a2.254 2.254 0 0 0-2.247 2.249 2.254 2.254 0 0 0 2.248 2.248 2.254 2.254 0 0 0 2.248-2.248 2.254 2.254 0 0 0-2.248-2.248zm3.432-2.871c.181 0 .328.147.328.328v.1a.328.328 0 0 1-.328.328h-6.863a.328.328 0 0 1-.328-.328v-.1c0-.181.147-.328.328-.328h6.863zm-3.967-2.456c.181 0 .328.147.328.328v.1a.328.328 0 0 1-.328.328h-2.896a.328.328 0 0 1-.328-.328v-.1c0-.181.147-.328.328-.328h2.896zm2.69-2.57v2.627h2.833l-2.834-2.626zM79.314 74.64l4.156 3.855h.019v10.988a.328.328 0 0 1-.328.328h-3.64v2.23a.357.357 0 0 1-.207.34.375.375 0 0 1-.397-.02l-1.55-1.076-1.548 1.076a.284.284 0 0 1-.208.076c-.057 0-.114 0-.17-.038a.398.398 0 0 1-.208-.34v-2.04h-3.64a.328.328 0 0 1-.327-.328V74.969c0-.181.147-.328.328-.328h7.72zm-.567 14.019a3.1 3.1 0 0 1-1.38.34 3.1 3.1 0 0 1-1.378-.34v2.663l1.152-.812a.369.369 0 0 1 .435 0l1.17.812zm0-13.263H72.02v13.867h3.212v-1.171a2.909 2.909 0 0 1-.87-2.097 3.011 3.011 0 0 1 3.005-3.004 3.011 3.011 0 0 1 3.004 3.004c0 .812-.34 1.549-.87 2.097v.982h3.193v-9.843h-3.948v-3.835zm-1.38 8.35a2.254 2.254 0 0 0-2.247 2.249 2.254 2.254 0 0 0 2.248 2.248 2.254 2.254 0 0 0 2.248-2.248 2.254 2.254 0 0 0-2.248-2.248zm3.432-2.871c.181 0 .328.147.328.328v.1a.328.328 0 0 1-.328.328h-6.863a.328.328 0 0 1-.328-.328v-.1c0-.181.147-.328.328-.328H80.8zm-3.967-2.456c.181 0 .328.147.328.328v.1a.328.328 0 0 1-.328.328h-2.896a.328.328 0 0 1-.328-.328v-.1c0-.181.147-.328.328-.328h2.896zm2.69-2.57v2.627h2.833l-2.834-2.626z" fill="#76BBFB"/><rect fill="#8FC5F8" fill-rule="nonzero" x="99.696" y="73.019" width="5.052" height="5.471" rx="2.182"/></g></svg>