<svg width="30" height="30" viewBox="0 0 30 30" xmlns="http://www.w3.org/2000/svg"><g fill="none" fill-rule="evenodd"><g fill="#FFF"><g><g><path d="M22.1164617,14.9691981 C22.3672087,15.1727594 22.4046452,15.5412756 22.2014739,15.7916326 L18.2636152,20.6330385 C18.1645643,20.7547074 18.0210575,20.8315303 17.8658517,20.846349 C17.710256,20.8615576 17.5554402,20.813592 17.4349413,20.7133712 L14.6580061,18.3977636 C14.4099889,18.1910825 14.3764519,17.8221764 14.5835229,17.5741591 C14.790204,17.3261419 15.1591101,17.2926049 15.4075173,17.4996759 L17.7293643,19.4362383 L21.2936372,15.0542103 C21.4975885,14.8034633 21.8653247,14.7656367 22.1164617,14.9691981 Z M18.0428966,7.70845413 C23.7515831,7.70845413 28.376949,12.3353799 28.376949,18.0425066 C28.376949,23.7496333 23.7515831,28.376559 18.0428966,28.376559 C12.3346,28.376559 7.70884413,23.7496333 7.70884413,18.0425066 C7.70884413,12.3349899 12.3346,7.70845413 18.0428966,7.70845413 Z M18.0428966,27.2066664 C23.0964432,27.2066664 27.2070563,23.0956633 27.2070563,18.0425066 C27.2070563,12.9893499 23.0964432,8.8783468 18.0428966,8.8783468 C12.9901298,8.8783468 8.87873679,12.9893499 8.87873679,18.0425066 C8.87873679,23.0956633 12.9901298,27.2066664 18.0428966,27.2066664 Z M31.9938663,21.9624259 C31.9938663,21.9624259 32.0625,22.3500503 32.0625,22.5430826 C32.0617201,23.0157192 31.9381014,23.4805565 31.7220612,23.8962584 C31.5052411,24.3107904 31.1936597,24.6812564 30.7838073,24.9366829 L28.4502614,26.3838401 C28.1453093,26.5714129 27.745206,26.9044423 27.385659,27.2702288 C27.0245521,27.6348453 26.6965922,28.0388482 26.5121392,28.34653 L25.0938393,30.6972343 C24.8407525,31.114496 24.4683366,31.4334867 24.0510749,31.6561563 C23.6322533,31.877266 23.1623464,32.0051742 22.6842503,32.0059542 C22.5009671,32.0059542 22.316904,31.9868459 22.1351807,31.9443398 L19.4623659,31.3176673 C19.1258267,31.2377247 18.6297922,31.190929 18.1341477,31.1917089 C17.6041863,31.190539 17.062526,31.244744 16.7037589,31.3348258 L14.0379635,31.9942552 C13.8461011,32.0418309 13.6511189,32.0632789 13.4576967,32.0632789 C12.9846701,32.062499 12.5198327,31.9388803 12.1041308,31.7224502 C11.6899888,31.5056301 11.3195228,31.1936587 11.0644862,30.7841963 L9.61732897,28.4510404 C9.42936621,28.1456984 9.09672673,27.7459851 8.73094028,27.3860481 C8.36671369,27.0249413 7.96232079,26.6969814 7.65541894,26.5125283 L5.30354469,25.0942285 C4.88628296,24.8407517 4.56729223,24.4691158 4.34462265,24.0514642 C4.12312297,23.6326426 3.99560467,23.1631257 3.99443478,22.6846396 C3.99482474,22.5025263 4.01354302,22.3172933 4.05760898,22.1324503 L4.05682905,22.13557 L4.68350157,19.4627553 C4.76344423,19.1258262 4.81023994,18.6297917 4.80907005,18.1341472 C4.81023994,17.6041858 4.75603491,17.0633055 4.66673311,16.7037584 L4.00691363,14.038743 C3.959338,13.8468806 3.93788996,13.6515086 3.9375,13.4576963 C3.93866989,12.9854497 4.06189859,12.5202224 4.27832873,12.1049105 C4.49514885,11.6899886 4.80751019,11.3195226 5.21736259,11.064486 L7.55090853,9.61732877 C7.85547059,9.42975598 8.25557389,9.09672654 8.61551087,8.73094011 C8.97661774,8.36632357 9.30457766,7.96232064 9.48903074,7.65463888 L10.9073306,5.3039346 C11.1604174,4.88667289 11.5320533,4.5672922 11.950095,4.3450126 C12.3681366,4.12351293 12.8380435,3.99560467 13.3165296,3.99482474 C13.4990329,3.99482474 13.683486,4.01432295 13.8655993,4.05682905 L16.538804,4.68350154 C16.8749532,4.76305424 17.3705977,4.81023991 17.8662423,4.80945998 C18.3962037,4.81023991 18.937084,4.75603488 19.297411,4.66634311 L21.9624265,4.00652367 C22.1542889,3.959338 22.349271,3.9375 22.5430832,3.9375 C23.0157199,3.93827993 23.4801673,4.06189858 23.8958692,4.27832872 C24.3107911,4.49514882 24.6808671,4.8071202 24.9362937,5.21658262 L26.383061,7.55012847 C26.5710238,7.85508049 26.9044432,8.2547938 27.2702296,8.61473077 C27.6344562,8.9762276 28.0384591,9.3041875 28.3457509,9.48825061 L30.6972352,10.9069404 C31.114107,11.1600272 31.4334877,11.5320531 31.6557673,11.9497047 C31.877267,12.3685263 32.0043953,12.8380432 32.0059552,13.3161393 C32.0055652,13.4990325 31.986067,13.6830957 31.9443408,13.864429 L31.9439509,13.8655989 L31.3172784,16.5384136 C31.2377257,16.8753427 31.19054,17.3709872 31.1913199,17.8666317 C31.19015,18.3965931 31.2439651,18.9374735 31.3344368,19.2970205 L31.9938663,21.9624259 Z M30.6847562,23.3545988 C30.8189039,23.0995622 30.8933871,22.8035793 30.8922307,22.5426933 C30.8922307,22.4346732 30.8809082,22.3336724 30.8579003,22.2428108 L30.8582903,22.2428108 L30.1984708,19.5785752 C30.0752421,19.0763013 30.021817,18.4722467 30.0206471,17.8662423 C30.0210371,17.2996243 30.0690027,16.7408055 30.1778027,16.2708986 L30.8044752,13.5980838 L30.8044752,13.5988638 C30.8247534,13.5115118 30.8356724,13.4159705 30.8352824,13.3153598 C30.8364523,13.0533038 30.7596293,12.7542012 30.621582,12.4972148 C30.4854845,12.2386685 30.2916723,12.026528 30.0924005,11.9075889 L27.7413062,10.489289 C27.3142954,10.2303528 26.8654466,9.85754698 26.4474049,9.44613472 C26.0305332,9.03355257 25.6530478,8.58938331 25.3886521,8.1654922 L23.9414948,5.83233624 C23.8217758,5.6365742 23.6104152,5.44705159 23.3542087,5.31407378 C23.0991721,5.17992609 22.8035792,5.10544292 22.5426932,5.10621679 C22.435453,5.10621679 22.3348422,5.11792178 22.2432006,5.14092967 L19.5777952,5.80074914 C19.0759112,5.9231979 18.4718566,5.97701297 17.8654622,5.97818286 C17.2988442,5.97740293 16.7404155,5.93060722 16.2705086,5.82141724 L13.5973038,5.19474473 C13.5103418,5.17407663 13.4159704,5.16354759 13.3153597,5.16354759 C13.0529138,5.16276766 12.7542012,5.23959062 12.4972147,5.37724799 C12.2386685,5.5133455 12.0265279,5.70754769 11.9075888,5.90681941 L10.4892889,8.25791372 C10.2303527,8.68492455 9.85793686,9.13377337 9.4465246,9.55142506 C9.03394245,9.96829682 8.5897732,10.3465621 8.16549213,10.6105679 L5.83194621,12.0577251 C5.63618417,12.1778341 5.44666155,12.3884148 5.31407372,12.6450113 C5.17992602,12.9000479 5.10505289,13.1956407 5.10620928,13.4565268 C5.10583282,13.563767 5.11792171,13.6647677 5.14053964,13.7564093 L5.80074907,16.4222047 C5.92280787,16.9229188 5.97662293,17.5269734 5.97779283,18.1333678 C5.97662293,18.6995958 5.93021719,19.2584146 5.82102721,19.7287114 L5.19396474,22.4015262 L5.19396474,22.404256 C5.17329663,22.4880983 5.1627676,22.5820797 5.16315756,22.6838603 C5.16198767,22.9459163 5.23881062,23.2450188 5.37685796,23.5020053 C5.51295547,23.7605515 5.70715765,23.973082 5.90642937,24.0916312 L8.25791365,25.5099311 C8.68492447,25.7688673 9.1337733,26.1416731 9.55142498,26.5534753 C9.96829674,26.9656675 10.3461721,27.4102267 10.6101779,27.8341178 L12.0577251,30.1676638 C12.1774441,30.3630358 12.3884147,30.5521685 12.6442312,30.6851463 C12.8992678,30.819294 13.1948607,30.8941671 13.4561368,30.8930107 C13.562987,30.8930107 13.6643777,30.8812983 13.7556293,30.8582904 L16.4210348,30.1988609 C16.9225288,30.0756322 17.5265833,30.0222071 18.1329777,30.0214272 C18.6995957,30.0222071 19.2580245,30.0690028 19.7287113,30.1781928 L22.4015261,30.8048653 C22.4877082,30.8251435 22.5828595,30.8356725 22.6838602,30.8356725 C22.9459162,30.8368424 23.2450187,30.7596295 23.5023951,30.6219721 C23.7605514,30.4858746 23.9730819,30.2916724 24.092021,30.0924007 L25.5103209,27.7416963 C25.7688672,27.3146855 26.141673,26.8658367 26.5530852,26.448185 C26.9656674,26.0313132 27.4098366,25.6530479 27.8341177,25.3890422 L30.1672737,23.9418849 C30.3626458,23.8217759 30.5521684,23.6108053 30.6847562,23.3545988 Z" transform="translate(-36.000000, -192.000000) translate(0.000000, 50.000000) translate(33.000000, 139.000000)"/></g></g></g></g></svg>