<svg width="44" height="27" viewBox="0 0 44 27" xmlns="http://www.w3.org/2000/svg"><g fill="none" fill-rule="evenodd"><g><g><g><g><path d="M9.405,25.761586 C9.405,20.6754802 5.18666667,16.5374514 3.55271368e-14,16.5374514 L3.55271368e-14,9.25605716 C5.18666667,9.25605716 9.405,5.11802831 9.405,0.0319225442 C9.405,-0.0171159173 18.7433333,0.00495139037 19.6233333,0.00495139037 C19.4875,0.353941775 19.5666667,2.23783601 19.5666667,2.73721101 C16.6575,3.46216293 14.8166667,5.62394177 14.8166667,8.40115331 C14.8166667,11.8828841 17.725,13.4709129 20.5616667,14.562836 C23.2491667,15.6302399 23.62,16.6061052 23.62,17.5002399 C23.62,18.8316341 22.44,19.726586 20.685,19.726586 C19.3033333,19.726586 17.7808333,19.2778841 16.6141667,18.5251437 C16.1633333,18.2358168 15.5533333,18.4352399 15.3716667,18.9329802 L14.6125,21.0138456 C14.4866667,21.3579322 14.6091667,21.7420668 14.9125,21.9537495 C16.0233333,22.7326437 17.68,23.2720668 19.3758333,23.4281725 L19.3758333,25.761586 C19.3758333,25.7918264 9.405,25.8261533 9.405,25.761586 Z M42.8575,16.5374514 L42.8575,9.25605716 C37.6716667,9.25605716 33.4525,5.11802831 33.4525,0.0319225442 C33.4525,-0.0171159173 24.0575,0.00495139037 23.1716667,0.00495139037 C23.3041667,0.345768698 23.2275,2.06865331 23.2275,2.54432639 C24.5816667,2.68245139 25.7975,3.05759562 26.9225,3.68365331 C27.28,3.88144177 27.4358333,4.30725908 27.29,4.68403793 L26.4991667,6.73384562 C26.3175,7.20216293 25.75,7.40322062 25.3066667,7.15394177 C24.695,6.81148985 23.5583333,6.17398985 21.73,6.17398985 C19.3883333,6.17398985 19.2066667,7.61653793 19.2066667,8.0595187 C19.2066667,9.00105716 19.7008333,9.62711485 22.6258333,10.8473552 C25.2975,11.9155764 28.0408333,13.5166822 28.0408333,17.2517783 C28.0408333,20.1524033 26.0591667,22.4702879 23.0375,23.200961 L23.0375,25.761586 C23.0375,25.8106245 32.5558333,25.7885572 33.4541667,25.7885572 C33.3041667,20.7343264 37.8008333,16.5374514 42.8575,16.5374514 L42.8575,16.5374514 Z" fill="#657380" transform="translate(-572.000000, -673.000000) translate(503.000000, 661.000000) translate(65.000000, 0.000000) translate(4.333333, 12.750000)"/><path d="M37.0225,0.00495139037 L40.7141667,0.00495139037 C41.8983333,0.00495139037 42.8575,0.945672544 42.8575,2.10624947 L42.8575,5.75307639 C39.5583333,5.75307639 37.095,3.19735524 37.0225,0.00495139037 Z M40.7141667,25.7885572 C41.8983333,25.7885572 42.8575,24.847836 42.8575,23.6864418 L42.8575,20.0404322 C39.6408333,20.0404322 37.0241667,22.6067783 37.0241667,25.761586 C37.0241667,25.8114418 40.3708333,25.7885572 40.7141667,25.7885572 Z M5.835,0.00495139037 L2.14333333,0.00495139037 C0.96,0.00495139037 3.55271368e-14,0.945672544 3.55271368e-14,2.10624947 L3.55271368e-14,5.75307639 C3.3,5.75307639 5.7625,3.19735524 5.835,0.00495139037 Z M5.83333333,25.761586 C5.83333333,22.6067783 3.21666667,20.0404322 3.55271368e-14,20.0404322 L3.55271368e-14,23.6864418 C3.55271368e-14,24.847836 0.96,25.7885572 2.14333333,25.7885572 C2.48,25.7885572 5.83333333,25.8114418 5.83333333,25.761586 L5.83333333,25.761586 Z" fill="#7ABAF8" transform="translate(-572.000000, -673.000000) translate(503.000000, 661.000000) translate(65.000000, 0.000000) translate(4.333333, 12.750000)"/></g></g></g></g></g></svg>