<svg width="236" height="200" viewBox="0 0 236 200" xmlns="http://www.w3.org/2000/svg"><defs><linearGradient x1="104.158%" y1="136.047%" x2="-2.786%" y2="-33.868%" id="497e7xrdwa"><stop stop-color="#010101" stop-opacity="0" offset="0%"/><stop stop-color="#010101" offset="95%"/></linearGradient><linearGradient x1="89.736%" y1="46.138%" x2="25.329%" y2="55.323%" id="ds6lmlna4b"><stop stop-color="#010101" stop-opacity="0" offset="0%"/><stop stop-color="#010101" offset="95%"/></linearGradient><linearGradient x1="40.685%" y1="64.705%" x2="88.277%" y2="-18.341%" id="ynipfxwaxc"><stop stop-color="#010101" stop-opacity="0" offset="0%"/><stop stop-color="#010101" offset="95%"/></linearGradient><linearGradient x1="65.62%" y1="117.855%" x2="3.427%" y2="-197.476%" id="v6064ghgrd"><stop stop-color="#010101" stop-opacity="0" offset="12%"/><stop stop-color="#010101" offset="95%"/></linearGradient></defs><g fill-rule="nonzero" fill="none"><path d="M235.994 144.976c.377 23.929-18.493 46.683-42.021 50.696-11.012 1.886-22.246.068-33.428-.43-24.324-1.062-48.593 4.168-72.874 4.716-4.915.112-9.84 0-14.767-.347a128.193 128.193 0 0 1-46.63-12.672c-6.228-3.043-12.307-6.679-16.842-11.908-9.728-11.206-10.665-27.608-8.414-42.269 2.25-14.66 7.2-28.991 7.452-43.832.18-10.362-1.942-20.611-2.486-30.96-.543-10.348.71-21.322 6.79-29.699 6.078-8.376 16.195-12.968 26.33-14.965 10.134-1.998 20.534-1.736 30.856-2.38 21.351-1.311 42.258-6.528 63.485-9.13 31.656-3.889 82.563-5.145 86.067 36.373.269 3.434.343 6.88.222 10.323-.308 11.467-2.066 22.977-.612 34.359 2.721 21.387 16.53 40.575 16.872 62.125z" fill="#8FC5F8" opacity=".24"/><path d="M235.994 144.976c.377 23.929-18.493 46.683-42.021 50.696-11.012 1.886-22.246.068-33.428-.43-24.324-1.062-48.593 4.168-72.874 4.716-5.946-5.62-11.88-11.244-17.463-17.203-1.71-1.856-3.516-3.913-3.85-6.43-.24-1.873.364-3.75.963-5.538a356.163 356.163 0 0 1 43.04-86.08c8.487-12.432 17.753-24.263 27.242-35.928 6.446-7.913 14.793-23.312 26.236-24.066 9.326-.617 20.14 7.956 28.234 11.622 9.172 4.153 18.42 8.145 27.661 12.166-.308 11.467-2.066 22.977-.612 34.358 2.721 21.379 16.53 40.567 16.872 62.117z" fill="#8FC5F8" opacity=".24"/><path d="m129.09 29.047-5.34-1.68 1.46-12.59h.427c.53-.43 2.08-2.286 1.664-3.662-.372-1.26-2.374-1.766-3.995-1.976-2.302-.292-3.807-.03-4.36.75-.74 1.055.236 3.035.677 3.708l.115.176-.804 12.17-5.925-1.637.334-1.205 4.29 1.205.676-10.289c-.428-.698-1.71-3.18-.56-4.84.855-1.217 2.755-1.65 5.655-1.286 4.53.58 5.399 2.457 5.335 3.931-.064 1.475-1.31 3.284-2.246 3.957l-1.245 10.717 4.227 1.33-.385 1.221z" fill="#606161"/><path fill="#8FC5F8" d="M172.737 178.683H65.332l-6.682-5.513 6.682-145.169 100.723-5.513 6.682 5.513z"/><path fill="url(#497e7xrdwa)" d="M172.737 178.683H65.332l-6.682-5.513 6.682-145.169 100.723-5.513 6.682 5.513z"/><path fill="url(#ds6lmlna4b)" d="m169.2 176.055-105.57.266-4.98-3.151 3.537-145.692 100.724-5.513 6.682 5.513z"/><path fill="#FFF" d="M58.65 22.488h107.405V173.17H58.65z"/><path d="M92.496 32.974c-.055.381-.08.857.227 1.071.168.102.36.155.556.155 9.895.858 19.86.303 29.6-1.646 1.603-.322 3.545-1.06 3.661-2.693.107-1.448-1.283-3.219-.163-4.128.42-.252.9-.387 1.39-.39a6.074 6.074 0 0 0 4.326-2.88l-28.085-.228c-2.73-.021-7.7-1.17-9.65 1.286-1.51 1.882-1.862 7.215-1.862 9.453z" fill="url(#ynipfxwaxc)"/><path fill="#8FC5F8" d="M123.618 29.116H94.541l-1.968-18.112 29.274-.197z"/><path fill="#81B7E9" d="m121.847 10.807 10.81 5.384-1.574 6.297h-7.991z"/><path d="m115.34 28.833-5.595-.219-1.934-14 .402-.104c.398-.626 1.4-3.078.634-4.44-.693-1.244-2.76-1.197-4.372-.935-2.298.368-3.684 1.097-4.005 2.104-.427 1.355 1.031 3.198 1.63 3.794l.159.155 2.45 13.349h-6.142v-1.398h4.47l-2.07-11.274c-.582-.63-2.503-2.91-1.823-5.05.496-1.565 2.216-2.593 5.134-3.06 4.517-.725 5.852 1.037 6.186 2.649.333 1.611-.394 3.926-1.117 4.93l1.643 11.925 4.427.176-.077 1.398z" fill="#606161"/><path fill="#8FC5F8" d="M74.893 45.457h33.008v41.741H74.893z"/><rect fill="#8FC5F8" x="118.117" y="51.236" width="35.104" height="3.412" rx="1.706"/><rect fill="#8FC5F8" x="118.117" y="58.716" width="35.104" height="3.412" rx="1.706"/><rect fill="#8FC5F8" x="118.117" y="69.609" width="35.104" height="3.412" rx="1.706"/><rect fill="#8FC5F8" x="118.117" y="77.089" width="35.104" height="3.412" rx="1.706"/><rect fill="#8FC5F8" x="98.075" y="111.744" width="35.104" height="3.412" rx="1.706"/><rect fill="#8FC5F8" x="98.075" y="119.225" width="35.104" height="3.412" rx="1.706"/><rect fill="#8FC5F8" x="98.075" y="136.942" width="35.104" height="3.412" rx="1.706"/><rect fill="#8FC5F8" x="98.075" y="144.423" width="35.104" height="3.412" rx="1.706"/><rect fill="#8FC5F8" x="74.106" y="92.843" width="79.111" height="3.412" rx="1.706"/><rect fill="#8FC5F8" x="74.106" y="100.324" width="79.111" height="3.412" rx="1.706"/><path fill="#8FC5F8" d="M78.037 109.644H91.79v12.205H78.037zM78.037 136.419H91.79v12.205H78.037z"/><path d="M81.776 79.837c-1.99 1.462-3.773 4.09-3.422 6.542 9.74-.48 18.985.081 27.451-.043-.171-2.23-1.065-5.063-2.614-6.67a9.555 9.555 0 0 0-2.746-1.78c-2.062-1.015-4.154-2.027-6.417-2.498-4.518-.956-8.697 1.843-12.252 4.45z" fill="#FFF"/><path d="M98.888 64.928a2.528 2.528 0 0 1-.66 1.98 1.01 1.01 0 0 1-.427.3c-.856.279-.894-1.453-.65-1.946.29-.562 1.608-1.449 1.737-.334zM83.688 63.959a2.533 2.533 0 0 0 .655 1.98c.116.134.263.236.427.3.856.28.895-1.457.646-1.946-.282-.548-1.6-1.449-1.728-.334z" fill="#CE9898"/><path d="M90.203 50.498a4.789 4.789 0 0 1 3.2-1.745c1.215-.128 2.567.292 3.217 1.32.42.79.613 1.68.556 2.573a5.064 5.064 0 0 1-.376 2.426 3.386 3.386 0 0 1-1.81 1.556c-1.78.703-3.88.133-5.257-1.136-1.378-1.269-.608-3.682.47-4.994z" fill="#606161"/><path d="M94.481 69.772s.052 5.667 1.34 6.859c1.287 1.191-5.16 6.76-7.89.544 0 0 1.588-2.683 1.045-7.206-.544-4.523 5.505-.197 5.505-.197z" fill="#C58686"/><path d="M94.67 71.114v1.243s-3.273 4.715-4.612 3.133c-1.339-1.581-.945-1.937-.945-1.937l-.146-3.58 5.703 1.14z" fill="url(#v6064ghgrd)"/><path d="M97.6 61.67s.941 8.65-3.675 10.365c-4.616 1.715-7.366-.746-8.633-4.921-1.266-4.175.672-12.603 5.562-11.785 4.89.82 6.746 6.34 6.746 6.34z" fill="#CE9898"/><path d="M98.331 64.576c.211-.3.347-.645.398-1.007a9.442 9.442 0 0 0-3.123-8.874 5.345 5.345 0 0 0-1.732-1.025 5.52 5.52 0 0 0-1.96-.214 9.848 9.848 0 0 0-5.74 2.07 7.528 7.528 0 0 0-2.815 5.35 3.642 3.642 0 0 0 .29 1.801c.255.571.765.988 1.374 1.123 1.065.185 1.356-.801 2.22-1.457 1.283-.99 1.711-2.46 4.663-2.212 4.8.403 5.142 6.027 6.425 4.445z" fill="#606161"/><path d="M84.544 64.576a.562.562 0 0 1-.133-.184 1.241 1.241 0 0 1-.034-.249.36.36 0 0 0-.111-.214.248.248 0 0 0-.236-.043.266.266 0 0 0-.14.163.928.928 0 0 0-.03.219c-.03.284.013.572.123.835.105.182.24.344.398.48a.33.33 0 0 0 .223.12.295.295 0 0 0 .154-.055.193.193 0 0 0 .055-.043.172.172 0 0 0 0-.064 1.615 1.615 0 0 0 0-.592.78.78 0 0 0-.27-.373zM97.904 65.506a.562.562 0 0 0 .132-.184c.02-.08.032-.162.034-.244a.335.335 0 0 1 .116-.215.226.226 0 0 1 .231-.047.278.278 0 0 1 .141.163.966.966 0 0 1 .03.223c.029.285-.014.572-.124.836-.105.18-.24.34-.398.476a.355.355 0 0 1-.222.124.3.3 0 0 1-.154-.06.111.111 0 0 1-.056-.043.159.159 0 0 1 0-.064 1.594 1.594 0 0 1 0-.587.793.793 0 0 1 .27-.378z" fill="#C58686"/></g></svg>