<svg width="60" height="60" viewBox="0 0 60 60" xmlns="http://www.w3.org/2000/svg"><g fill="none" fill-rule="evenodd"><g><g transform="translate(-683.000000, -915.000000) translate(683.000000, 915.000000)"><path d="M56.0619231,10.8784615 L2.96769231,10.8784615 C1.32923077,10.8784615 1.96765681e-13,12.2076923 1.96765681e-13,13.8461538 L1.96765681e-13,40.7284615 C1.96765681e-13,42.3669231 1.32923077,43.695 2.96769231,43.695 L9.24115385,43.695 C9.24115385,43.6811538 9.23884615,43.6684615 9.23884615,43.6534615 L9.23884615,27.7846154 L49.7884615,27.7846154 L49.7884615,43.6534615 C49.7884615,43.6684615 49.7873077,43.6811538 49.7873077,43.695 L56.0619231,43.695 C57.7003846,43.695 59.0284615,42.3669231 59.0284615,40.7284615 L59.0284615,13.8461538 C59.0284615,12.2076923 57.7003846,10.8784615 56.0619231,10.8784615" fill="#657380"/><polygon fill="#657380" points="14.1888462 5.93423077 44.8396154 5.93423077 44.8396154 1.63971401e-14 14.1888462 1.63971401e-14"/><path d="M44.8442308,43.6534615 L44.8442308,32.7288462 L14.1842308,32.7288462 L14.1842308,43.6534615 C14.1842308,43.6684615 14.1830769,43.6811538 14.1830769,43.695 L14.1842308,43.695 L14.1842308,56.4 C14.1842308,58.0396154 15.5134615,59.3676923 17.1519231,59.3676923 L41.8765385,59.3676923 C43.5161538,59.3676923 44.8442308,58.0396154 44.8442308,56.4 L44.8442308,43.695 L44.8453846,43.695 C44.8453846,43.6811538 44.8442308,43.6684615 44.8442308,43.6534615 Z M35.8834615,53.3088462 L23.145,53.3088462 C21.78,53.3088462 20.6734615,52.2023077 20.6734615,50.8361538 C20.6734615,49.4711538 21.78,48.3634615 23.145,48.3634615 L35.8834615,48.3634615 C37.2496154,48.3634615 38.3561538,49.4711538 38.3561538,50.8361538 C38.3561538,52.2023077 37.2496154,53.3088462 35.8834615,53.3088462 Z M35.8834615,43.6407692 L23.145,43.6407692 C21.78,43.6407692 20.6734615,42.5330769 20.6734615,41.1669231 C20.6734615,39.8019231 21.78,38.6953846 23.145,38.6953846 L35.8834615,38.6953846 C37.2496154,38.6953846 38.3561538,39.8019231 38.3561538,41.1669231 C38.3561538,42.5330769 37.2496154,43.6407692 35.8834615,43.6407692 L35.8834615,43.6407692 Z" fill="#7ABAF8"/></g></g></g></svg>