<svg width="31" height="39" viewBox="0 0 31 39" xmlns="http://www.w3.org/2000/svg"><g fill="none" fill-rule="evenodd"><g><g><g><g transform="translate(-1083.000000, -516.000000) translate(1008.000000, 510.000000) translate(65.000000, 0.000000) translate(10.833333, 6.375000)"><polyline fill="#B38184" points="29.8995667 6.1508125 23.7722333 0 23.3490833 0 23.3490833 6.56805625 29.8995667 6.56805625 29.8995667 6.1508125"/><path d="M21.7232167,9.75576875 C20.8261083,9.75576875 20.0988667,9.0425125 20.0988667,8.1619125 L20.0988667,0 L1.949675,0 C0.872841667,0 0,0.8568 0,1.912925 L0,35.9134562 C0,36.9688375 0.872841667,37.8256375 1.949675,37.8256375 L27.9498917,37.8256375 C29.026725,37.8256375 29.8995667,36.9688375 29.8995667,35.9134562 L29.8995667,9.75576875 L21.7232167,9.75576875 Z M8.48954167,6.9451375 L14.4818917,6.9451375 C15.3797583,6.9451375 16.107,7.65839375 16.107,8.53899375 C16.107,9.41959375 15.3797583,10.13285 14.4818917,10.13285 L8.48954167,10.13285 C7.591675,10.13285 6.86443333,9.41959375 6.86443333,8.53899375 C6.86443333,7.65839375 7.591675,6.9451375 8.48954167,6.9451375 Z M21.4107833,31.0790813 L8.48954167,31.0790813 C7.591675,31.0790813 6.86443333,30.365825 6.86443333,29.485225 C6.86443333,28.604625 7.591675,27.8913687 8.48954167,27.8913687 L21.4107833,27.8913687 C22.3078917,27.8913687 23.0358917,28.604625 23.0358917,29.485225 C23.0358917,30.365825 22.3078917,31.0790813 21.4107833,31.0790813 Z M21.4107833,24.0975 L8.48954167,24.0975 C7.591675,24.0975 6.86443333,23.3835 6.86443333,22.5036437 C6.86443333,21.6230437 7.591675,20.9097875 8.48954167,20.9097875 L21.4107833,20.9097875 C22.3078917,20.9097875 23.0358917,21.6230437 23.0358917,22.5036437 C23.0358917,23.3835 22.3078917,24.0975 21.4107833,24.0975 Z M21.4107833,17.115175 L8.48954167,17.115175 C7.591675,17.115175 6.86443333,16.401175 6.86443333,15.5213187 C6.86443333,14.6407187 7.591675,13.9274625 8.48954167,13.9274625 L21.4107833,13.9274625 C22.3078917,13.9274625 23.0358917,14.6407187 23.0358917,15.5213187 C23.0358917,16.401175 22.3078917,17.115175 21.4107833,17.115175 L21.4107833,17.115175 Z" fill="#B38184"/><polyline fill="#7ABAF8" points="29.8995667 6.1508125 23.7722333 0 23.3490833 0 23.3490833 6.56805625 29.8995667 6.56805625 29.8995667 6.1508125"/><path d="M21.7232167,9.75576875 C20.8261083,9.75576875 20.0988667,9.0425125 20.0988667,8.1619125 L20.0988667,0 L1.949675,0 C0.872841667,0 0,0.8568 0,1.912925 L0,35.9134562 C0,36.9688375 0.872841667,37.8256375 1.949675,37.8256375 L27.9498917,37.8256375 C29.026725,37.8256375 29.8995667,36.9688375 29.8995667,35.9134562 L29.8995667,9.75576875 L21.7232167,9.75576875 Z M8.48954167,6.9451375 L14.4818917,6.9451375 C15.3797583,6.9451375 16.107,7.65839375 16.107,8.53899375 C16.107,9.41959375 15.3797583,10.13285 14.4818917,10.13285 L8.48954167,10.13285 C7.591675,10.13285 6.86443333,9.41959375 6.86443333,8.53899375 C6.86443333,7.65839375 7.591675,6.9451375 8.48954167,6.9451375 Z M21.4107833,31.0790813 L8.48954167,31.0790813 C7.591675,31.0790813 6.86443333,30.365825 6.86443333,29.485225 C6.86443333,28.604625 7.591675,27.8913687 8.48954167,27.8913687 L21.4107833,27.8913687 C22.3078917,27.8913687 23.0358917,28.604625 23.0358917,29.485225 C23.0358917,30.365825 22.3078917,31.0790813 21.4107833,31.0790813 Z M21.4107833,24.0975 L8.48954167,24.0975 C7.591675,24.0975 6.86443333,23.3835 6.86443333,22.5036437 C6.86443333,21.6230437 7.591675,20.9097875 8.48954167,20.9097875 L21.4107833,20.9097875 C22.3078917,20.9097875 23.0358917,21.6230437 23.0358917,22.5036437 C23.0358917,23.3835 22.3078917,24.0975 21.4107833,24.0975 Z M21.4107833,17.115175 L8.48954167,17.115175 C7.591675,17.115175 6.86443333,16.401175 6.86443333,15.5213187 C6.86443333,14.6407187 7.591675,13.9274625 8.48954167,13.9274625 L21.4107833,13.9274625 C22.3078917,13.9274625 23.0358917,14.6407187 23.0358917,15.5213187 C23.0358917,16.401175 22.3078917,17.115175 21.4107833,17.115175 L21.4107833,17.115175 Z" fill="#657380"/></g></g></g></g></g></svg>