<svg width="42" height="60" viewBox="0 0 42 54" xmlns="http://www.w3.org/2000/svg"><g fill="none" fill-rule="evenodd"><g><g><path d="M41.3994,6.57952941 L41.3994,2.72223529 C41.3994,1.21870588 40.19085,-3.00935747e-14 38.69985,-3.00935747e-14 L2.7006,-3.00935747e-14 C1.20855,-3.00935747e-14 -6.34159392e-14,1.21870588 -6.34159392e-14,2.72223529 L-6.34159392e-14,6.57952941 L41.3994,6.57952941" fill="#7ABAF8" transform="translate(-1046.000000, -919.000000) translate(1046.000000, 919.000000)"/><path d="M33.5685,41.2930588 L25.6935,41.2930588 C24.4503,41.2930588 23.44335,40.2776471 23.44335,39.024 C23.44335,37.7703529 24.4503,36.7549412 25.6935,36.7549412 L33.5685,36.7549412 C34.8117,36.7549412 35.81865,37.7703529 35.81865,39.024 C35.81865,40.2776471 34.8117,41.2930588 33.5685,41.2930588 Z M-6.34159392e-14,11.1176471 L-6.34159392e-14,51.1263529 C-6.34159392e-14,52.6298824 1.20855,53.8485882 2.7006,53.8485882 L38.69985,53.8485882 C40.19085,53.8485882 41.3994,52.6298824 41.3994,51.1263529 L41.3994,11.1176471 L-6.34159392e-14,11.1176471 Z M33.5685,26.7416471 L25.6935,26.7416471 C24.4503,26.7416471 23.44335,25.7262353 23.44335,24.4725882 C23.44335,23.22 24.4503,22.2035294 25.6935,22.2035294 L33.5685,22.2035294 C34.8117,22.2035294 35.81865,23.22 35.81865,24.4725882 C35.81865,25.7262353 34.8117,26.7416471 33.5685,26.7416471 Z M11.99415,31.1357647 C11.99205,31.1357647 11.98995,31.1357647 11.98785,31.1357647 C11.2938,31.1336471 10.63965,30.8096471 10.21545,30.2558824 L6.1509,24.9649412 C5.38965,23.9749412 5.56815,22.5487059 6.55095,21.7821176 C7.5327,21.0144706 8.94705,21.1944706 9.70725,22.1855294 L12.00465,25.1756471 L17.17275,18.5272941 C17.93925,17.5404706 19.3536,17.3689412 20.33115,18.1408235 C21.30975,18.9148235 21.4809,20.3410588 20.7144,21.3268235 L13.76445,30.2664706 C13.33815,30.8149412 12.68505,31.1357647 11.99415,31.1357647 Z M11.99415,45.6871765 C11.99205,45.6871765 11.98995,45.6871765 11.98785,45.6871765 C11.2938,45.684 10.63965,45.36 10.21545,44.8072941 L6.14985,39.5152941 C5.38965,38.5252941 5.56815,37.1001176 6.55095,36.3324706 C7.53375,35.5648235 8.946,35.7458824 9.70725,36.7369412 L12.00465,39.726 L17.17275,33.0776471 C17.93925,32.0918824 19.3536,31.9192941 20.33115,32.6922353 C21.30975,33.4651765 21.4809,34.8914118 20.7144,35.8771765 L13.76445,44.8178824 C13.33815,45.3663529 12.68505,45.6871765 11.99415,45.6871765 L11.99415,45.6871765 Z" fill="#657380" transform="translate(-1046.000000, -919.000000) translate(1046.000000, 919.000000)"/></g></g></g></svg>