<svg width="42" height="42" viewBox="0 0 42 42" xmlns="http://www.w3.org/2000/svg"><g fill="none" fill-rule="evenodd"><g fill="#FFF"><g><g><g><path d="M7.875,8.71857592 C7.875,8.21243037 8.29678797,7.875 8.71857594,7.875 L29.3018288,7.875 C29.5549016,7.875 29.8079743,8.04371518 29.8923319,8.12807278 L39.846528,16.6481896 C40.0152432,16.8169048 40.1839584,17.1543352 40.1839584,17.3230504 L40.1839584,25.0839489 C42.7146862,26.9398159 44.3174805,30.0610468 43.9800501,33.4353505 C43.8113349,34.7007144 43.3895469,35.8817207 42.7990438,36.9783694 L47.4387114,42.7146857 C48.5353601,44.0644072 48.2822874,46.173347 46.9325659,47.2699957 C45.5828444,48.3666444 43.5582621,48.1979292 42.3772558,46.7638501 L40.0996008,43.9800496 L40.0996008,47.5230685 C40.0996008,48.029214 39.7621704,48.3666444 39.2560248,48.3666444 L8.71857594,48.3666444 C8.21243037,48.3666444 7.875,48.029214 7.875,47.5230685 L7.875,8.71857592 Z M46.1733481,43.6426182 L41.8711109,38.2437325 C41.1962502,39.0873083 40.3526743,39.7621691 39.4247408,40.2683146 L43.7269779,45.5828427 C44.2331235,46.2577034 45.2454146,46.4264186 45.9202753,45.8359155 C46.5951361,45.3297699 46.7638512,44.3174789 46.1733481,43.6426182 Z M42.2928979,33.1822785 C42.7146859,29.1331141 39.7621701,25.5057376 35.7130057,25.0839496 C31.5794836,24.6621616 28.0364647,27.6146774 27.6146768,31.6638418 C27.1928888,35.7130063 30.1454045,39.3403828 34.194569,39.7621708 C38.328091,40.1839587 41.8711099,37.231443 42.2928979,33.1822785 Z M30.1454046,10.574443 L30.1454046,16.395117 L37.0627275,16.395117 L30.1454046,10.574443 Z M9.56215185,9.56215185 L9.56215185,46.6794934 L38.4968061,46.6794934 L38.4968061,41.7867529 L37.8219453,40.943177 C36.640939,41.3649649 35.3755752,41.5336801 34.1102113,41.3649649 C30.1454044,40.943177 27.0241735,38.0750187 26.1805976,34.3632846 L15.129753,34.3632846 C14.6236074,34.3632846 14.286177,34.0258542 14.286177,33.5197086 C14.286177,33.0135631 14.6236074,32.6761327 15.129753,32.6761327 L26.0118824,32.6761327 C25.9275248,32.3387023 26.0118824,31.9169144 26.0118824,31.4951264 C26.09624,30.6515504 26.2649552,29.8923321 26.5180279,29.2174713 L15.129753,29.2174713 C14.6236074,29.2174713 14.286177,28.880041 14.286177,28.3738954 C14.286177,27.8677498 14.6236074,27.5303194 15.129753,27.5303194 L27.4459615,27.5303194 C29.2174709,24.7465188 32.4230594,23.0593669 35.9660783,23.3967973 C36.8096542,23.4811549 37.7375878,23.7342277 38.4968061,24.0716581 L38.4968061,18.0822689 L29.3018285,18.0822689 C28.7956829,18.0822689 28.4582526,17.7448385 28.4582526,17.2386929 L28.4582526,9.56215185 L9.56215185,9.56215185 Z M15.1297532,24.0716578 C14.6236076,24.0716578 14.2861773,23.7342275 14.2861773,23.2280819 C14.2861773,22.7219364 14.6236076,22.384506 15.1297532,22.384506 L27.6990341,22.384506 C28.2051797,22.384506 28.54261,22.7219364 28.54261,23.2280819 C28.54261,23.7342275 28.2051797,24.0716578 27.6990341,24.0716578 L15.1297532,24.0716578 Z" transform="translate(-738.000000, -395.000000) translate(0.000000, 80.000000) translate(731.000000, 308.000000)"/></g></g></g></g></g></svg>