<svg width="34" height="46" viewBox="0 0 34 46" xmlns="http://www.w3.org/2000/svg"><g fill="none" fill-rule="evenodd"><g fill="#FFF"><g><g><g><g><path d="M16.5545692,23.2107854 C16.9243109,23.1431602 17.305184,23.1078269 17.694147,23.1078269 L20.5182658,23.1078269 L20.5182658,18.5119734 C20.5182658,14.3866047 23.8746313,11.0302391 27.9993943,11.0302391 C32.1247629,11.0302391 35.4811283,14.3866047 35.4811283,18.5119734 L35.4811283,23.1078269 L38.305853,23.1078269 C38.6948163,23.1078269 39.0756897,23.1431603 39.4454316,23.2107855 L39.4454316,18.5119741 C39.4454316,12.2006986 34.3112759,7.06654288 28.0000004,7.06654288 C21.6887249,7.06654288 16.5545692,12.2006986 16.5545692,18.5119741 L16.5545692,23.2107854 Z M14.7380263,23.8429888 L14.7380263,18.5119741 C14.7380263,11.1991779 20.6872043,5.25 28.0000004,5.25 C35.3127966,5.25 41.2619745,11.1991779 41.2619745,18.5119741 L41.2619745,23.8429892 C43.2607654,24.9055073 44.625,27.0100616 44.625,29.4269739 L44.625,43.9587108 C44.625,47.4428399 41.7899822,50.2772522 38.305853,50.2772522 L17.694147,50.2772522 C14.2100178,50.2772522 11.375,47.4422344 11.375,43.9581053 L11.375,29.4269739 C11.375,27.0100613 12.739235,24.9055067 14.7380263,23.8429888 Z M22.3348086,23.1078269 L33.6645856,23.1078269 L33.6645856,18.5119734 C33.6645856,15.3881253 31.1232423,12.8467819 27.9993943,12.8467819 C24.8761519,12.8467819 22.3348086,15.3881253 22.3348086,18.5119734 L22.3348086,23.1078269 Z M17.6941467,24.9243697 C15.2115383,24.9243697 13.1915427,26.9443653 13.1915427,29.4269739 L13.1915427,43.9587111 C13.1915427,46.4413196 15.2115383,48.4613153 17.6941467,48.4613153 L38.3058516,48.4613153 C40.7884601,48.4613153 42.8084556,46.4413196 42.8084556,43.9587111 L42.8084556,29.4269739 C42.8084556,26.9443653 40.7884601,24.9243697 38.3058516,24.9243697 L17.6941467,24.9243697 Z M25.9091593,40.9287171 L20.8470601,35.8660124 L22.1313558,34.5817167 L25.9091593,38.3601257 L33.8686442,30.4006407 L35.1529399,31.6849365 L25.9091593,40.9287171 Z" transform="translate(-1019.000000, -393.000000) translate(0.000000, 80.000000) translate(1008.000000, 308.000000)"/></g></g></g></g></g></g></svg>