<?xml version="1.0" encoding="UTF-8"?>
<svg viewBox="0 0 160 160" xmlns="http://www.w3.org/2000/svg" xmlns:xlink="http://www.w3.org/1999/xlink">
 <defs>
  <linearGradient id="c">
   <stop stop-color="#fff" offset="0"/>
   <stop stop-color="#fff" stop-opacity="0" offset="1"/>
  </linearGradient>
  <linearGradient id="d">
   <stop stop-opacity=".29752" offset="0"/>
   <stop stop-opacity="0" offset="1"/>
  </linearGradient>
  <linearGradient id="b">
   <stop stop-color="#fff" stop-opacity="0" offset="0"/>
   <stop stop-color="#fff" offset="1"/>
  </linearGradient>
  <linearGradient id="g" x1=".71794" x2="1.0759" y1=".45641" y2=".87496">
   <stop stop-color="#df421e" stop-opacity="0" offset="0"/>
   <stop stop-color="#fff" offset="1"/>
  </linearGradient>
  <linearGradient id="e">
   <stop stop-color="#cbcbcb" offset="0"/>
   <stop stop-color="#f0f0f0" offset=".34923"/>
   <stop stop-color="#e2e2e2" offset="1"/>
  </linearGradient>
  <linearGradient id="l" x1=".70543" x2=".71318" y1=".625" y2="1.875" xlink:href="#b"/>
  <linearGradient id="j" x1=".45041" x2="-.48068" y1=".41175" y2="-.36292" xlink:href="#b"/>
  <linearGradient id="i" x1="-.2041" x2=".54689" y1="-.85121" y2=".51391" xlink:href="#c"/>
  <linearGradient id="k" x1="1.6766" x2=".37119" y1="1.1056" y2=".54595" xlink:href="#d"/>
  <linearGradient id="h" x1=".316" x2=".516" y1="-.00392" y2=".40784" xlink:href="#d"/>
  <linearGradient id="f" x1=".91544" x2=".75735" y1="-.10732" y2=".36098" xlink:href="#c"/>
  <linearGradient id="o" x1=".92308" x2=".1453" y1=".16406" y2="1.1719" xlink:href="#e"/>
  <linearGradient id="n" x1=".63248" x2="-.37607" y1=".32813" y2="1.3281" xlink:href="#e"/>
  <linearGradient id="m" x1=".85827" x2=".06299" y1=".14063" y2=".54688" xlink:href="#c"/>
  <linearGradient id="a" x1=".50735" x2=".16176" y1=".55629" y2="-.19868" xlink:href="#b"/>
 </defs>
 <path d="m17.159 6.3293v146.96h134.11v-110.22l-33.528-36.739h-100.58z" fill="#fff" fill-rule="evenodd"/>
 <g transform="matrix(.30417 0 0 .29757 -36.704 -112.49)" fill-opacity=".06918" fill-rule="evenodd">
  <path d="m173.36 408.81v489.04h435.05v-366.78l-108.76-122.26h-326.29z"/>
  <path d="m170.12 407.19v493.91h441.53v-371.28c-36.847-41.423-73.68-82.859-110.56-124.25h-330.97v1.625z"/>
  <path d="m166.88 403.94v500.41h448.03v-375.78c-37.451-42.09-74.889-84.192-112.38-126.25h-335.66v1.625z"/>
 </g>
 <path transform="matrix(.29669 0 0 .29669 -71.196 -34.058)" d="m297.99 136.74v495.32h452.02v-371.49l-113.01-123.83h-339.02z" fill="url(#o)" fill-rule="evenodd" stroke="#000" stroke-opacity=".36478" stroke-width="1.4375"/>
 <path transform="matrix(.29669 0 0 .29669 -71.196 -34.058)" d="m750.01 260.57c-34.07-10.086-78.216-8.6561-111.57-2.9072 5.7583-36.949 6.478-83.255-1.4396-120.92l113.01 123.83z" fill="url(#n)" fill-rule="evenodd"/>
 <path transform="matrix(.29669 0 0 .29669 -71.196 -34.058)" d="m301.31 174.91-2.0359 454h443.82l0.25448-112.23c-9.9248 3.8172-110.19-138.18-236.41-132.08-126.34 6.1131-93.649-191.37-205.62-209.69z" fill="url(#m)" fill-rule="evenodd"/>
 <path transform="translate(70.642 106.44)" d="m-35.441-36.61h102.61" fill="none" stroke="#000" stroke-width=".225"/>
 <path transform="translate(70.642 106.44)" d="m-35.468-34.337h89.862" fill="none" stroke="#000" stroke-width=".225"/>
 <path transform="translate(70.642 106.44)" d="m-35.436-38.882h104.82" fill="none" stroke="#000" stroke-width=".225"/>
 <path transform="translate(70.642 106.44)" d="m-35.448-41.155h99.281" fill="none" stroke="#000" stroke-width=".225"/>
 <path transform="translate(70.642 106.44)" d="m-35.437-43.428h104.64" fill="none" stroke="#000" stroke-width=".225"/>
 <path transform="translate(70.642 106.44)" d="m-35.438-45.7h104.04" fill="none" stroke="#000" stroke-width=".225"/>
 <path transform="translate(70.642 106.44)" d="m-35.449-47.973h98.727" fill="none" stroke="#000" stroke-width=".225"/>
 <path transform="translate(70.642 106.44)" d="m-35.444-50.246h100.76" fill="none" stroke="#000" stroke-width=".225"/>
 <path transform="translate(70.642 106.44)" d="m-35.433-52.518h106.3" fill="none" stroke="#000" stroke-width=".225"/>
 <path transform="matrix(.49783 0 0 1 53.146 155.61)" d="m-35.441-36.61h102.61" fill="none" stroke="#000" stroke-width=".31889"/>
 <path transform="matrix(.49783 0 0 1 53.146 155.61)" d="m-35.468-34.337h89.862" fill="none" stroke="#000" stroke-width=".31889"/>
 <path transform="matrix(.49783 0 0 1 53.146 155.61)" d="m-35.436-38.882h104.82" fill="none" stroke="#000" stroke-width=".31889"/>
 <path transform="matrix(.49783 0 0 1 53.146 155.61)" d="m-35.448-41.155h99.281" fill="none" stroke="#000" stroke-width=".31889"/>
 <path transform="matrix(.49783 0 0 1 53.146 155.61)" d="m-35.437-43.428h104.64" fill="none" stroke="#000" stroke-width=".31889"/>
 <path transform="matrix(.49783 0 0 1 53.146 155.61)" d="m-35.438-45.7h112.97" fill="none" stroke="#000" stroke-width=".31889"/>
 <path transform="matrix(.49783 0 0 1 53.146 155.61)" d="m-35.449-47.973h106.84" fill="none" stroke="#000" stroke-width=".31889"/>
 <path transform="matrix(.49783 0 0 1 53.146 155.61)" d="m-35.444-50.246h116.18" fill="none" stroke="#000" stroke-width=".31889"/>
 <path transform="matrix(.49783 0 0 1 53.146 155.61)" d="m-35.433-52.518h124.97" fill="none" stroke="#000" stroke-width=".31889"/>
 <path transform="matrix(.99482 0 0 -1 70.928 44.128)" d="m-35.441-36.61h102.61" fill="none" stroke="#000" stroke-width=".22559"/>
 <path transform="translate(.0061492 -2.6228)" d="m35.676 81.088h105.81" fill="none" stroke="#000" stroke-width=".225"/>
 <path transform="matrix(.99482 0 0 -1 70.928 44.128)" d="m-35.436-38.882h104.82" fill="none" stroke="#000" stroke-width=".22559"/>
 <path transform="translate(.0061492 -2.6228)" d="m35.635 87.906h88.188" fill="none" stroke="#000" stroke-width=".225"/>
 <path transform="matrix(.99482 0 0 -1 70.928 44.128)" d="m-35.437-43.428h104.64" fill="none" stroke="#000" stroke-width=".22559"/>
 <path transform="matrix(.99482 0 0 -1 70.928 44.128)" d="m-35.438-45.7h104.04" fill="none" stroke="#000" stroke-width=".22559"/>
 <path transform="matrix(.99482 0 0 -1 70.928 44.128)" d="m-35.449-47.973h98.727" fill="none" stroke="#000" stroke-width=".22559"/>
 <path transform="translate(.0061492 -2.6228)" d="m35.674 96.996h105.83" fill="none" stroke="#000" stroke-width=".225"/>
 <path transform="translate(.0061492 -2.6228)" d="m35.598 99.269h70.552" fill="none" stroke="#000" stroke-width=".225"/>
 <path d="m35.591 39.041h52.898" fill="none" stroke="#000" stroke-width=".225"/>
 <path d="m35.614 36.769h65.319" fill="none" stroke="#000" stroke-width=".225"/>
 <path d="m35.792 21.999h43.569" fill="none" stroke="#000" stroke-width=".625"/>
 <path d="m40.046 126.83c-0.23368 0.98445-0.6155 1.9236-0.94692 2.8792-0.74287 2.2369 0.58242 1.6672 2.2585 0.93711 1.2214-0.61705 5.5514-4.0814 6.4037-4.0696 0.71894 0.00995 0.61584 0.06437 0.99267 0.53702 0.02386 3.3009-5.2518 8.8695-7.3478 11.112-2.0924 2.1338-4.3143 4.386-6.9377 5.8742-0.70928 0.40239-1.9969 1.0135-2.0739-0.24349 2.4948-2.8263 10.348-6.6264 13.919-7.9489 4.1407-1.2335 7.0813 0.30336 3.8726 4.3996-1.5558 1.5419-3.0501 0.50568-2.907-1.5405 0.14428-2.0631 1.1359-3.9793 2.0725-5.7782 0.58016-1.016 5.2631-8.4915 6.0601-3.9475 0.37151 1.9897 2.4221 1.1501 3.9098 1.6926 1.5649 1.0831-0.15754 3.9256 0.89492 4.0776 1.9783 0.18362 4.0821-0.77443 5.8578-1.5427 1.745-0.7831 3.3081-1.083 1.2886 1.021-1.0614 1.2328-0.06409 0.83237 1.0401 0.63077 1.766-0.37299 3.5046-0.86608 5.2517-1.3176 2.1155-0.50372 5.9832-0.91012 3.2801-0.051-1.7847 0.40171-6.419 1.67-8.2 2.0866-1.6426 0.35161-4.1878 0.30234-2.396-1.7652 0.27013-0.2906 0.59858-1.2002 0.81485-0.8676 0.54907 0.8445 1.4412 0.12145-0.43645 0.91922-2.1636 0.89111-4.7333 1.9889-7.1064 1.5769-2.1179-0.93852 0.28542-2.8165-0.93063-4.093-1.724-0.92639-3.906 0.40353-4.4209-2.2716-0.1129-0.52926-0.24493-0.48861 0.04174-0.74881 0.36887-0.3348-0.93235 0.40158-1.2991 0.73868-1.2426 1.1422-2.1488 2.5625-2.9926 4.0082-0.97052 1.8924-2.4082 4.5524-1.5853 6.7498 0.22954 0.61289 0.13974 0.66089 0.83681 0.09233 2.7323-3.0996 0.8438-4.4151-2.5376-3.5663-3.4185 1.1309-11.012 4.6681-13.119 7.6243-0.26245-0.27456-0.11885-0.19436-0.6728-0.23159-0.29205-0.01961 0.58199-0.1071 0.84722-0.23091 0.67035-0.31295 1.2999-0.72087 1.9059-1.1421 1.8683-1.2988 3.538-2.8372 5.15-4.4361 2.0572-2.169 6.8582-7.3706 6.7388-10.636 0.20147 0.05548 0.2078 0.07487 0.47383 0.01919 0.10721-0.02245-0.22394 0.0109-0.32382 0.05584-0.47473 0.21366-0.90631 0.53795-1.3233 0.84357-1.4447 1.0588-2.8639 2.086-4.4469 2.9338-2.1434 1.0122-5.0479 1.509-3.9699-1.6679 0.2449-0.71276 0.8948-1.9275 0.70822-2.7135h1.3536z"/>
 <g transform="matrix(1.0681 0 0 1.0681 -10.041 -10.873)">
  <g transform="translate(-42.021 -76.77)" fill-opacity=".07955" fill-rule="evenodd">
   <path d="m165.98 227.75c-7.494 1.2603-6.9354-6.0816-10.942-7.5163s-8.3339 4.6749-13.096-1.0919c-4.5994-5.5703 1.7991-9.0471 1.0385-13.234s-7.1746-3.5567-4.1361-11.704c2.7426-7.3536 7.2684-3.1487 10.514-5.9008s0.07515-8.2956 7.3102-9.5123c8.7062-1.4642 7.1187 4.7988 11.125 6.2335s7.5823-5.5852 13.096 1.0919c5.5656 6.7404-1.7991 9.0471-1.0385 13.234s8.2456 4.7993 5.6022 11.887c-2.5464 6.8276-8.7346 2.9654-11.98 5.7176s0.14146 9.5112-7.4934 10.795z"/>
   <path d="m165.6 225.42c-6.78 1.1402-6.2747-5.5022-9.8992-6.8002s-7.54 4.2296-11.848-0.98788c-4.1612-5.0396 1.6277-8.1852 0.93957-11.973s-6.4911-3.2178-3.742-10.589c2.4813-6.653 6.576-2.8487 9.5124-5.3387s0.06799-7.5052 6.6137-8.6061c7.8768-1.3247 6.4405 4.3416 10.065 5.6396s6.86-5.0531 11.848 0.98787c5.0353 6.0982-1.6277 8.1852-0.93957 11.973s7.4601 4.3421 5.0685 10.755c-2.3038 6.1771-7.9024 2.6829-10.839 5.1729s0.12798 8.605-6.7795 9.7667z"/>
   <path d="m165.81 226.69c-7.1707 1.206-6.6362-5.8193-10.47-7.1921s-7.9744 4.4733-12.531-1.0448c-4.401-5.33 1.7215-8.6568 0.99371-12.663s-6.8651-3.4032-3.9576-11.199c2.6243-7.0364 6.9549-3.0129 10.06-5.6463s0.07191-7.9377 6.9948-9.102c8.3307-1.401 6.8116 4.5918 10.645 5.9646s7.2552-5.3443 12.531 1.0448c5.3255 6.4496-1.7215 8.6568-0.99371 12.663s7.89 4.5923 5.3605 11.374c-2.4365 6.533-8.3578 2.8375-11.463 5.4709s0.13535 9.1009-7.1702 10.33z"/>
  </g>
  <g transform="matrix(.7448 0 0 .7448 -15.814 33.325)">
   <path d="m192.45 114.51s-12.021 16.598-12.021 24.043c0 7.4496 13.741 3.4441 19.178 8.8758 5.4367 5.4418-12.886 19.754-12.886 19.754l18.323-5.1586 7.4496 7.7277c0-9.4473 10.878-16.887 5.1535-22.617s-22.045-5.1181-22.895-12.598c-0.85977-7.4749-2.2961-20.032-2.2961-20.032l-0.00506 0.00506z" fill="#22364b"/>
   <path transform="matrix(.1098 .04095 -.04095 .1098 168.6 62.926)" d="m426.11 669.44c-68.218 39.386-89.388-33.944-133.49-33.367s-64.008 75.592-131.14 36.831c-64.848-37.44-15.297-94.385-37.851-132.29s-82.565-8.5548-82.565-98.689c0-81.355 59.188-56.91 80.741-95.396s-29.319-80.841 36.542-118.87c79.254-45.757 86.521 20.821 130.63 20.244s53.411-81.71 131.14-36.831c78.47 45.305 15.297 94.385 37.851 132.29s97.469 16.744 97.469 95.158c0 75.535-74.091 60.44-95.644 98.926s35.826 91.863-33.675 131.99z" fill="#ac0000" fill-rule="evenodd"/>
   <path transform="matrix(.1098 .04095 -.04095 .1098 156.68 66.884)" d="m506.73 587.15c-68.218 39.386-89.388-33.944-133.49-33.367s-64.008 75.592-131.14 36.831c-64.848-37.44-15.297-94.385-37.851-132.29s-97.469-5.024-97.469-95.158c0-81.355 74.091-60.44 95.644-98.926s-32.186-93.964 33.675-131.99c79.254-45.757 89.388 33.944 133.49 33.367s53.411-81.71 131.14-36.831c78.47 45.305 15.297 94.385 37.851 132.29s97.469 16.744 97.469 95.158c0 75.535-74.091 60.44-95.644 98.926s35.826 91.863-33.675 131.99z" fill="url(#g)" fill-rule="evenodd"/>
   <path transform="matrix(.61877 0 0 .61877 108.51 -66.925)" d="m127.51 348.73c-12.99 2.1846-12.022-10.542-18.966-13.029s-14.446 8.1034-22.7-1.8927c-7.9725-9.6554 3.1185-15.682 1.8001-22.939s-14.978-6.4827-9.7107-20.605c4.7539-12.747 15.14-5.1402 20.766-9.9107s0.44792-16.603 12.989-18.712c15.091-2.538 12.022 10.542 18.966 13.029s13.143-9.6812 22.7 1.8927c9.6472 11.684-3.1186 15.682-1.8001 22.939s14.293 8.3189 9.7107 20.605c-4.4138 11.835-15.14 5.1402-20.766 9.9107s0.2452 16.486-12.989 18.712z" fill="url(#h)" fill-rule="evenodd"/>
   <path transform="matrix(.10884 .040591 -.040591 .10884 168.72 63.465)" d="m460.66 450.62a166.99 166.99 0 1 0 -333.98 0 166.99 166.99 0 1 0 333.98 0z" fill="#cb0000" fill-rule="evenodd" stroke="#000" stroke-opacity=".06918" stroke-width="19.773"/>
   <path transform="matrix(.088194 .032893 -.032893 .088194 171.37 71.377)" d="m460.66 450.62a166.99 166.99 0 1 0 -333.98 0 166.99 166.99 0 1 0 333.98 0z" fill="url(#i)" fill-rule="evenodd"/>
   <path transform="matrix(.087203 .032523 -.032523 .087203 172.83 76.961)" d="m460.66 450.62a166.99 166.99 0 1 0 -333.98 0 166.99 166.99 0 1 0 333.98 0z" fill="url(#k)" fill-rule="evenodd"/>
   <path transform="matrix(.088194 .032893 -.032893 .088194 170.34 77.846)" d="m460.66 450.62a166.99 166.99 0 1 0 -333.98 0 166.99 166.99 0 1 0 333.98 0z" fill="url(#l)" fill-rule="evenodd"/>
   <path transform="matrix(.067817 .025293 -.025293 .067817 170.1 82.307)" d="m460.66 450.62a166.99 166.99 0 1 0 -333.98 0 166.99 166.99 0 1 0 333.98 0z" fill="url(#j)" fill-rule="evenodd"/>
   <path d="m200.27 147.95c14.786 20.937 22.092 5.054 16.77-0.27269s-21.824-4.7766-16.77 0.27269z" fill="url(#f)"/>
  </g>
  <path d="m111.62 109.49s1.1112-6.8689 6.3638-5.6567 4.0405 2.5253 4.0405 2.5253c-2.2223-0.50507-6.2628-1.9192-10.404 3.1314z" fill="url(#a)" fill-rule="evenodd"/>
  <path d="m101.7 123.26s-3.7997-5.8291 0.90175-8.4666 4.6883-0.85045 4.6883-0.85045c-1.9838 1.1216-5.9245 2.7941-5.59 9.3171z" fill="url(#a)" fill-rule="evenodd"/>
  <path d="m103.64 141.14s2.1609-11.301 0.24165-11.706c-3.674 5.0025-4.2649 8.2854-0.24165 11.706z" fill="url(#a)" fill-rule="evenodd"/>
  <path d="m129.04 109.52c4.7014-2.6375 4.6883-0.85045 4.6883-0.85045-6.2264 6.3743-7.4704 2.1748-4.6883 0.85045z" fill="url(#a)" fill-rule="evenodd"/>
 </g>
</svg>
