<svg width="42" height="41" viewBox="0 0 42 41" xmlns="http://www.w3.org/2000/svg"><g fill="none" fill-rule="evenodd"><g><g><g><g><path d="M20.3569167,0 C9.11445833,0 -4.50010399e-14,8.93918029 -4.50010399e-14,19.9662139 C-4.50010399e-14,30.9924712 9.11445833,39.9316514 20.3569167,39.9316514 C31.599375,39.9316514 40.7138333,30.9924712 40.7138333,19.9662139 C40.7138333,8.93918029 31.599375,0 20.3569167,0 Z M20.3569167,35.9384087 C11.3770417,35.9384087 4.07075,28.773399 4.07075,19.9662139 C4.07075,11.1582524 11.3770417,3.99324279 20.3569167,3.99324279 C29.3367917,3.99324279 36.6422917,11.1582524 36.6422917,19.9662139 C36.6422917,28.773399 29.3367917,35.9384087 20.3569167,35.9384087 L20.3569167,35.9384087 Z" fill="#7ABAF8" transform="translate(-825.000000, -515.000000) translate(755.000000, 510.000000) translate(65.000000, 0.000000) translate(5.416667, 5.312500)"/><path d="M20.3569167,7.32107452 C13.24775,7.32107452 7.46383333,12.993762 7.46383333,19.9662139 C7.46383333,26.9378894 13.24775,32.6105769 20.3569167,32.6105769 C27.4660833,32.6105769 33.25,26.9378894 33.25,19.9662139 C33.25,12.993762 27.4660833,7.32107452 20.3569167,7.32107452 Z M26.4543333,24.2677043 C26.122625,24.7195938 25.6032917,24.9602909 25.0760417,24.9602909 C24.7324583,24.9602909 24.3857083,24.8585769 24.0864583,24.6466082 L19.3665417,21.3164471 C18.9232083,21.0043173 18.660375,20.5011827 18.660375,19.9662139 L18.660375,11.2902476 C18.660375,10.3709399 19.420375,9.62710817 20.3569167,9.62710817 C21.29425,9.62710817 22.0534583,10.3709399 22.0534583,11.2902476 L22.0534583,19.1129038 L26.0672083,21.9461418 C26.828,22.481887 27.001375,23.5223197 26.4543333,24.2677043 L26.4543333,24.2677043 Z" fill="#657380" transform="translate(-825.000000, -515.000000) translate(755.000000, 510.000000) translate(65.000000, 0.000000) translate(5.416667, 5.312500)"/></g></g></g></g></g></svg>